<svg xmlns="http://www.w3.org/2000/svg" xmlns:xlink="http://www.w3.org/1999/xlink" width="500" zoomAndPan="magnify" viewBox="0 0 375 374.999991" height="500" preserveAspectRatio="xMidYMid meet" version="1.0"><defs><g/><clipPath id="daa0dc8868"><path d="M 59.195312 87 L 315.695312 87 L 315.695312 257.855469 L 59.195312 257.855469 Z M 59.195312 87 " clip-rule="nonzero"/></clipPath><clipPath id="3111b8e409"><path d="M 87 65.855469 L 188 65.855469 L 188 223 L 87 223 Z M 87 65.855469 " clip-rule="nonzero"/></clipPath><clipPath id="41ac1137da"><path d="M 187 65.855469 L 288 65.855469 L 288 223 L 187 223 Z M 187 65.855469 " clip-rule="nonzero"/></clipPath></defs><g clip-path="url(#daa0dc8868)"><path fill="#000000" d="M 287.167969 87.214844 L 87.824219 87.214844 C 72.097656 87.214844 59.347656 99.964844 59.347656 115.691406 L 59.347656 222.480469 C 59.347656 238.207031 72.097656 250.957031 87.824219 250.957031 L 169.101562 250.957031 C 172.800781 255.203125 179.617188 258.078125 187.496094 258.078125 C 195.378906 258.078125 202.199219 255.203125 205.894531 250.957031 L 287.167969 250.957031 C 302.894531 250.957031 315.644531 238.207031 315.644531 222.480469 L 315.644531 115.691406 C 315.644531 99.964844 302.894531 87.214844 287.167969 87.214844 Z M 287.167969 87.214844 " fill-opacity="1" fill-rule="nonzero"/></g><path fill="#444444" d="M 201.734375 229.601562 C 201.734375 237.460938 195.355469 243.839844 187.496094 243.839844 C 179.636719 243.839844 173.257812 237.460938 173.257812 229.601562 L 173.257812 101.453125 C 173.257812 93.59375 179.636719 87.214844 187.496094 87.214844 C 195.355469 87.214844 201.734375 93.59375 201.734375 101.453125 Z M 201.734375 229.601562 " fill-opacity="1" fill-rule="nonzero"/><path fill="#afafaf" d="M 187.496094 222.480469 C 187.496094 230.339844 181.117188 236.71875 173.257812 236.71875 L 87.824219 236.71875 C 79.964844 236.71875 73.585938 230.339844 73.585938 222.480469 L 73.585938 94.332031 C 73.585938 86.472656 79.964844 80.09375 87.824219 80.09375 L 173.257812 80.09375 C 181.117188 80.09375 187.496094 86.472656 187.496094 94.332031 Z M 187.496094 222.480469 " fill-opacity="1" fill-rule="nonzero"/><g clip-path="url(#3111b8e409)"><path fill="#e8e8e8" d="M 187.496094 222.480469 C 180.382812 208.257812 161.460938 208.242188 159.019531 208.242188 C 144.78125 208.242188 123.421875 222.480469 102.066406 222.480469 C 94.945312 222.480469 87.824219 216.101562 87.824219 208.242188 L 87.824219 94.332031 C 87.824219 86.472656 94.945312 80.09375 102.066406 80.09375 C 125.238281 80.09375 144.78125 65.855469 159.019531 65.855469 C 180.378906 65.855469 187.496094 79.351562 187.496094 87.214844 Z M 187.496094 222.480469 " fill-opacity="1" fill-rule="nonzero"/></g><path fill="#afafaf" d="M 301.40625 222.480469 C 301.40625 230.339844 295.027344 236.71875 287.167969 236.71875 L 201.734375 236.71875 C 193.875 236.71875 187.496094 230.339844 187.496094 222.480469 L 187.496094 94.332031 C 187.496094 86.472656 193.875 80.09375 201.734375 80.09375 L 287.167969 80.09375 C 295.027344 80.09375 301.40625 86.472656 301.40625 94.332031 Z M 301.40625 222.480469 " fill-opacity="1" fill-rule="nonzero"/><g clip-path="url(#41ac1137da)"><path fill="#e1e1e1" d="M 187.496094 222.480469 C 194.609375 208.257812 213.53125 208.242188 215.972656 208.242188 C 230.214844 208.242188 251.570312 222.480469 272.929688 222.480469 C 280.046875 222.480469 287.167969 216.101562 287.167969 208.242188 L 287.167969 94.332031 C 287.167969 86.472656 280.046875 80.09375 272.929688 80.09375 C 249.75 80.09375 230.214844 65.855469 215.972656 65.855469 C 194.617188 65.855469 187.496094 79.351562 187.496094 87.214844 Z M 187.496094 222.480469 " fill-opacity="1" fill-rule="nonzero"/></g><g fill="#000000" fill-opacity="1"><g transform="translate(-0.389026, 306.208002)"><g><path d="M 21.40625 5.296875 C 19.039062 4.765625 17.28125 3.945312 16.125 2.84375 C 14.976562 1.75 14.351562 0.0976562 14.25 -2.109375 L 11.6875 -41.640625 C 11.71875 -41.953125 12.179688 -42.429688 13.078125 -43.078125 C 13.984375 -43.734375 15.203125 -44.242188 16.734375 -44.609375 C 18.265625 -44.984375 19.972656 -44.957031 21.859375 -44.53125 C 23.597656 -44.132812 25.078125 -43.175781 26.296875 -41.65625 C 27.523438 -40.132812 28.09375 -37.921875 28 -35.015625 L 27.25 -13.859375 L 36.328125 -31.140625 C 37.109375 -32.785156 38.3125 -33.894531 39.9375 -34.46875 C 41.5625 -35.039062 43.390625 -35.097656 45.421875 -34.640625 C 47.359375 -34.203125 48.941406 -33.347656 50.171875 -32.078125 C 51.410156 -30.816406 52.035156 -29.320312 52.046875 -27.59375 L 52.75 -8.171875 L 61.21875 -27.71875 C 62.28125 -30.21875 63.671875 -31.90625 65.390625 -32.78125 C 67.117188 -33.664062 68.925781 -33.894531 70.8125 -33.46875 C 72.550781 -33.070312 73.992188 -32.398438 75.140625 -31.453125 C 76.296875 -30.515625 77.128906 -29.539062 77.640625 -28.53125 C 78.148438 -27.53125 78.320312 -26.894531 78.15625 -26.625 L 59.203125 8.046875 C 58.179688 9.890625 56.875 11.078125 55.28125 11.609375 C 53.695312 12.148438 51.75 12.15625 49.4375 11.625 C 47.125 11.101562 45.359375 10.257812 44.140625 9.09375 C 42.921875 7.925781 42.253906 6.269531 42.140625 4.125 L 41.09375 -16.4375 L 31.34375 1.6875 C 30.363281 3.582031 29.039062 4.785156 27.375 5.296875 C 25.71875 5.816406 23.726562 5.816406 21.40625 5.296875 Z M 21.40625 5.296875 "/></g></g></g><g fill="#000000" fill-opacity="1"><g transform="translate(72.671176, 321.975548)"><g><path d="M 4.15625 -17.921875 C 4.675781 -21.703125 5.953125 -24.914062 7.984375 -27.5625 C 10.023438 -30.207031 12.660156 -32.117188 15.890625 -33.296875 C 19.128906 -34.484375 22.734375 -34.804688 26.703125 -34.265625 C 30.628906 -33.734375 33.972656 -32.46875 36.734375 -30.46875 C 39.503906 -28.46875 41.503906 -25.910156 42.734375 -22.796875 C 43.960938 -19.679688 44.320312 -16.234375 43.8125 -12.453125 C 43.289062 -8.628906 42.007812 -5.382812 39.96875 -2.71875 C 37.925781 -0.0507812 35.289062 1.859375 32.0625 3.015625 C 28.832031 4.179688 25.234375 4.492188 21.265625 3.953125 C 17.296875 3.410156 13.929688 2.148438 11.171875 0.171875 C 8.421875 -1.804688 6.429688 -4.347656 5.203125 -7.453125 C 3.984375 -10.566406 3.632812 -14.054688 4.15625 -17.921875 Z M 31.828125 -14.09375 C 32.160156 -16.539062 31.707031 -18.644531 30.46875 -20.40625 C 29.226562 -22.175781 27.457031 -23.21875 25.15625 -23.53125 C 22.851562 -23.84375 20.863281 -23.328125 19.1875 -21.984375 C 17.507812 -20.648438 16.5 -18.753906 16.15625 -16.296875 C 15.820312 -13.796875 16.28125 -11.671875 17.53125 -9.921875 C 18.789062 -8.179688 20.570312 -7.15625 22.875 -6.84375 C 25.132812 -6.53125 27.109375 -7.054688 28.796875 -8.421875 C 30.484375 -9.796875 31.492188 -11.6875 31.828125 -14.09375 Z M 31.828125 -14.09375 "/></g></g></g><g fill="#000000" fill-opacity="1"><g transform="translate(117.093973, 327.857611)"><g><path d="M 28.59375 -35.453125 C 30.957031 -35.273438 32.785156 -34.441406 34.078125 -32.953125 C 35.378906 -31.460938 35.941406 -29.554688 35.765625 -27.234375 C 35.628906 -25.503906 35.171875 -24.097656 34.390625 -23.015625 C 33.609375 -21.929688 32.773438 -21.148438 31.890625 -20.671875 C 31.015625 -20.203125 30.53125 -20.019531 30.4375 -20.125 C 29.0625 -21.507812 27.429688 -22.273438 25.546875 -22.421875 C 21.410156 -22.742188 19.113281 -19.898438 18.65625 -13.890625 L 17.96875 -5.15625 C 17.613281 -0.5625 15.335938 1.566406 11.140625 1.234375 L 9.65625 1.125 C 7.59375 0.96875 6.046875 0.328125 5.015625 -0.796875 C 3.984375 -1.921875 3.5625 -3.742188 3.75 -6.265625 L 6 -35.203125 C 6.019531 -35.492188 6.613281 -35.789062 7.78125 -36.09375 C 8.957031 -36.40625 10.207031 -36.507812 11.53125 -36.40625 C 15.03125 -36.132812 17.359375 -34.492188 18.515625 -31.484375 C 18.734375 -31.015625 18.945312 -30.226562 19.15625 -29.125 C 19.914062 -31.195312 21.125 -32.8125 22.78125 -33.96875 C 24.4375 -35.132812 26.375 -35.628906 28.59375 -35.453125 Z M 28.59375 -35.453125 "/></g></g></g><g fill="#000000" fill-opacity="1"><g transform="translate(152.720754, 330.763346)"><g><path d="M 18.3125 1.359375 C 15 1.304688 12.09375 0.441406 9.59375 -1.234375 C 7.101562 -2.921875 5.191406 -5.242188 3.859375 -8.203125 C 2.523438 -11.171875 1.890625 -14.535156 1.953125 -18.296875 C 2.015625 -22.210938 2.765625 -25.609375 4.203125 -28.484375 C 5.640625 -31.359375 7.628906 -33.550781 10.171875 -35.0625 C 12.722656 -36.570312 15.679688 -37.300781 19.046875 -37.25 C 21.328125 -37.207031 23.382812 -36.710938 25.21875 -35.765625 C 27.0625 -34.816406 28.515625 -33.566406 29.578125 -32.015625 L 29.890625 -50.125 C 29.898438 -50.425781 30.488281 -50.765625 31.65625 -51.140625 C 32.820312 -51.515625 34.070312 -51.6875 35.40625 -51.65625 C 37.882812 -51.613281 39.953125 -50.765625 41.609375 -49.109375 C 43.265625 -47.453125 44.054688 -44.644531 43.984375 -40.6875 L 43.390625 -5.796875 C 43.316406 -1.191406 41.175781 1.070312 36.96875 1 L 35.5625 0.984375 C 33.976562 0.953125 32.679688 0.628906 31.671875 0.015625 C 30.671875 -0.585938 29.984375 -1.613281 29.609375 -3.0625 C 29.421875 -3.90625 29.304688 -4.625 29.265625 -5.21875 C 28.242188 -3.15625 26.769531 -1.53125 24.84375 -0.34375 C 22.914062 0.832031 20.738281 1.398438 18.3125 1.359375 Z M 29.40625 -21.921875 C 28.84375 -23.210938 28.007812 -24.226562 26.90625 -24.96875 C 25.800781 -25.707031 24.484375 -26.09375 22.953125 -26.125 C 20.722656 -26.15625 18.925781 -25.441406 17.5625 -23.984375 C 16.195312 -22.523438 15.492188 -20.535156 15.453125 -18.015625 C 15.410156 -15.585938 16.03125 -13.59375 17.3125 -12.03125 C 18.601562 -10.46875 20.3125 -9.671875 22.4375 -9.640625 C 24.414062 -9.609375 26.046875 -10.160156 27.328125 -11.296875 C 28.617188 -12.441406 29.28125 -14.003906 29.3125 -15.984375 Z M 29.40625 -21.921875 "/></g></g></g><g fill="#000000" fill-opacity="1"><g transform="translate(201.12355, 331.71975)"><g><path d="M 0.859375 -41.40625 C 0.710938 -43.726562 1.164062 -45.523438 2.21875 -46.796875 C 3.28125 -48.078125 4.898438 -48.785156 7.078125 -48.921875 L 11.21875 -49.171875 C 13.15625 -49.285156 14.585938 -49.082031 15.515625 -48.5625 C 16.441406 -48.050781 17.296875 -47.050781 18.078125 -45.5625 L 27.015625 -26.90625 L 33.5625 -46.5 C 34.207031 -48.132812 34.957031 -49.25 35.8125 -49.84375 C 36.664062 -50.4375 37.957031 -50.785156 39.6875 -50.890625 L 43.921875 -51.140625 C 46.128906 -51.273438 47.851562 -50.773438 49.09375 -49.640625 C 50.332031 -48.503906 51.023438 -46.773438 51.171875 -44.453125 L 53.265625 -9.765625 C 53.398438 -7.453125 53.039062 -5.695312 52.1875 -4.5 C 51.34375 -3.300781 49.878906 -2.640625 47.796875 -2.515625 L 45.515625 -2.375 C 43.484375 -2.25 41.960938 -2.726562 40.953125 -3.8125 C 39.953125 -4.894531 39.382812 -6.59375 39.25 -8.90625 L 38.859375 -15.34375 L 38.078125 -29.53125 L 33.96875 -15.046875 C 33.925781 -14.859375 33.78125 -14.382812 33.53125 -13.625 C 33.28125 -12.875 32.695312 -12.285156 31.78125 -11.859375 C 30.863281 -11.429688 29.566406 -11.164062 27.890625 -11.0625 C 25.710938 -10.925781 24.25 -11.070312 23.5 -11.5 C 22.757812 -11.925781 22.257812 -12.441406 22 -13.046875 C 21.738281 -13.660156 21.550781 -14.078125 21.4375 -14.296875 L 15.75 -27.5 L 16.953125 -7.5625 C 17.085938 -5.25 16.742188 -3.492188 15.921875 -2.296875 C 15.097656 -1.109375 13.648438 -0.453125 11.578125 -0.328125 L 9.125 -0.171875 C 7.101562 -0.0546875 5.601562 -0.539062 4.625 -1.625 C 3.644531 -2.707031 3.085938 -4.40625 2.953125 -6.71875 Z M 0.859375 -41.40625 "/></g></g></g><g fill="#000000" fill-opacity="1"><g transform="translate(259.852303, 327.826341)"><g><path d="M 0.234375 -9.90625 C -0.285156 -13.78125 1.210938 -16.976562 4.734375 -19.5 C 8.253906 -22.03125 13.597656 -23.804688 20.765625 -24.828125 L 22.3125 -25.046875 C 22.257812 -25.390625 22.148438 -25.800781 21.984375 -26.28125 C 21.253906 -29.125 19.222656 -30.320312 15.890625 -29.875 C 12.203125 -29.375 9.96875 -27.597656 9.1875 -24.546875 C 9.09375 -24.484375 8.867188 -24.398438 8.515625 -24.296875 C 8.160156 -24.203125 7.707031 -24.117188 7.15625 -24.046875 C 5.300781 -23.785156 3.570312 -23.929688 1.96875 -24.484375 C 0.363281 -25.046875 -0.570312 -26.3125 -0.84375 -28.28125 C -1.113281 -30.28125 -0.695312 -32.035156 0.40625 -33.546875 C 2.507812 -36.773438 7.484375 -38.921875 15.328125 -39.984375 C 21.796875 -40.859375 26.726562 -40.191406 30.125 -37.984375 C 33.53125 -35.773438 35.585938 -32.019531 36.296875 -26.71875 L 39.078125 -6.265625 C 39.128906 -5.878906 38.601562 -5.429688 37.5 -4.921875 C 36.394531 -4.421875 35.15625 -4.078125 33.78125 -3.890625 C 30.539062 -3.453125 28.066406 -4.367188 26.359375 -6.640625 C 25.742188 -7.554688 25.34375 -8.328125 25.15625 -8.953125 C 24.238281 -6.835938 22.773438 -5.085938 20.765625 -3.703125 C 18.753906 -2.328125 16.398438 -1.457031 13.703125 -1.09375 C 10.023438 -0.59375 6.96875 -1.140625 4.53125 -2.734375 C 2.09375 -4.328125 0.660156 -6.71875 0.234375 -9.90625 Z M 23.109375 -19.09375 L 21.125 -18.734375 C 15.3125 -17.859375 12.597656 -15.992188 12.984375 -13.140625 C 13.128906 -12.066406 13.625 -11.257812 14.46875 -10.71875 C 15.3125 -10.1875 16.375 -10.007812 17.65625 -10.1875 C 19.5625 -10.445312 21.035156 -11.15625 22.078125 -12.3125 C 23.117188 -13.476562 23.570312 -14.925781 23.4375 -16.65625 Z M 23.109375 -19.09375 "/></g></g></g><g fill="#000000" fill-opacity="1"><g transform="translate(302.996562, 321.805448)"><g><path d="M 19.734375 -2.734375 C 11.285156 -1.097656 6.234375 -4.582031 4.578125 -13.1875 L 1.9375 -26.90625 L 0.984375 -26.734375 C -0.816406 -26.390625 -2.253906 -26.523438 -3.328125 -27.140625 C -4.410156 -27.753906 -5.101562 -28.835938 -5.40625 -30.390625 L -5.5625 -31.203125 C -5.863281 -32.804688 -5.632812 -34.132812 -4.875 -35.1875 C -4.125 -36.25 -2.847656 -36.953125 -1.046875 -37.296875 L -0.09375 -37.46875 L -0.78125 -40.96875 C -1.195312 -43.15625 -0.976562 -44.921875 -0.125 -46.265625 C 0.71875 -47.617188 2.160156 -48.492188 4.203125 -48.890625 L 5.4375 -49.125 C 7.476562 -49.519531 9.117188 -49.316406 10.359375 -48.515625 C 11.597656 -47.722656 12.453125 -46.085938 12.921875 -43.609375 L 13.609375 -40.109375 L 17.765625 -40.921875 C 21.410156 -41.617188 23.535156 -40.390625 24.140625 -37.234375 L 24.296875 -36.421875 C 24.941406 -33.078125 23.390625 -31.046875 19.640625 -30.328125 L 15.421875 -29.515625 L 17.75 -17.40625 C 18.21875 -14.96875 19.46875 -13.941406 21.5 -14.328125 C 23.0625 -14.628906 24.234375 -15.644531 25.015625 -17.375 C 25.242188 -17.414062 25.644531 -17.257812 26.21875 -16.90625 C 26.789062 -16.5625 27.359375 -16.039062 27.921875 -15.34375 C 28.484375 -14.644531 28.863281 -13.785156 29.0625 -12.765625 C 29.414062 -10.921875 29.078125 -9.171875 28.046875 -7.515625 C 27.304688 -6.359375 26.222656 -5.363281 24.796875 -4.53125 C 23.367188 -3.707031 21.679688 -3.109375 19.734375 -2.734375 Z M 19.734375 -2.734375 "/></g></g></g><g fill="#000000" fill-opacity="1"><g transform="translate(335.875413, 315.575843)"><g><path d="M -2.703125 -17.84375 C -3.609375 -21.4375 -3.609375 -24.890625 -2.703125 -28.203125 C -1.796875 -31.523438 -0.109375 -34.359375 2.359375 -36.703125 C 4.828125 -39.054688 7.863281 -40.6875 11.46875 -41.59375 C 15.019531 -42.476562 18.390625 -42.503906 21.578125 -41.671875 C 24.773438 -40.835938 27.488281 -39.269531 29.71875 -36.96875 C 31.957031 -34.675781 33.503906 -31.828125 34.359375 -28.421875 L 34.515625 -27.765625 C 34.742188 -26.648438 34.722656 -25.765625 34.453125 -25.109375 C 34.191406 -24.460938 33.554688 -24.015625 32.546875 -23.765625 L 9.78125 -18.0625 C 10 -17.601562 10.179688 -17.289062 10.328125 -17.125 C 11.222656 -15.5625 12.519531 -14.492188 14.21875 -13.921875 C 15.925781 -13.347656 17.8125 -13.320312 19.875 -13.84375 C 21.925781 -14.351562 23.585938 -15.191406 24.859375 -16.359375 C 26.128906 -17.523438 26.941406 -18.835938 27.296875 -20.296875 C 27.304688 -20.453125 27.941406 -20.546875 29.203125 -20.578125 C 30.472656 -20.617188 31.6875 -20.363281 32.84375 -19.8125 C 34 -19.257812 34.773438 -18.191406 35.171875 -16.609375 C 35.472656 -15.410156 35.398438 -14.21875 34.953125 -13.03125 C 34.515625 -11.851562 33.742188 -10.71875 32.640625 -9.625 C 30.242188 -7.332031 26.601562 -5.578125 21.71875 -4.359375 C 15.613281 -2.828125 10.375 -3.25 6 -5.625 C 1.632812 -8.007812 -1.265625 -12.082031 -2.703125 -17.84375 Z M 21.4375 -27.78125 C 20.8125 -29.820312 19.804688 -31.269531 18.421875 -32.125 C 17.046875 -32.976562 15.398438 -33.164062 13.484375 -32.6875 C 11.648438 -32.226562 10.265625 -31.226562 9.328125 -29.6875 C 8.390625 -28.15625 8.054688 -26.425781 8.328125 -24.5 Z M 21.4375 -27.78125 "/></g></g></g></svg>