<svg xmlns="http://www.w3.org/2000/svg" xmlns:xlink="http://www.w3.org/1999/xlink" width="500" zoomAndPan="magnify" viewBox="0 0 375 374.999991" height="500" preserveAspectRatio="xMidYMid meet" version="1.0"><defs><clipPath id="edccced43b"><path d="M 34 42.09375 L 338 42.09375 L 338 331 L 34 331 Z M 34 42.09375 " clip-rule="nonzero"/></clipPath></defs><g clip-path="url(#edccced43b)"><path fill="#000000" d="M 321.203125 119.207031 C 306.410156 90.328125 282.65625 70.453125 254.105469 56.121094 C 244.816406 51.457031 235.054688 47.617188 224.734375 45.390625 C 215.097656 43.3125 205.273438 42.148438 195.574219 42.21875 C 177.347656 42.351562 159.203125 44.851562 142.867188 53.578125 C 124.230469 63.53125 105.867188 74.050781 87.808594 85.023438 C 69.738281 96.003906 52.898438 108.511719 42.242188 127.664062 C 35.011719 140.660156 32.59375 154.164062 35.863281 168.703125 C 37.121094 174.285156 38.140625 179.914062 44.15625 185.886719 C 34.269531 146.476562 53.757812 122.605469 81.671875 103.003906 C 76.171875 113.792969 68.042969 122.722656 62.953125 133.832031 C 53.074219 155.394531 46.667969 177.367188 46.277344 201.445312 C 45.785156 231.734375 57.398438 257.207031 75.816406 279.515625 C 99.367188 308.03125 131.386719 322.679688 167.386719 328.5625 C 195.171875 333.101562 222.332031 328.546875 248.78125 319.941406 C 276.652344 310.875 298.472656 293.566406 313.257812 268.242188 C 321.613281 253.925781 327.144531 238.226562 331.835938 222.273438 C 342.378906 186.433594 338.027344 152.058594 321.203125 119.207031 Z M 291.265625 278.261719 C 278.027344 291.867188 260.058594 298.625 241.894531 303.191406 C 217.550781 309.316406 192.820312 311.136719 168.023438 305.210938 C 142.648438 299.148438 119.78125 288.34375 101.039062 269.726562 C 99.460938 268.160156 97.496094 266.984375 95.695312 265.644531 C 95.441406 268.140625 96.910156 269.832031 98.597656 271.382812 C 121.433594 292.40625 147.503906 307.320312 178.671875 311.109375 C 207.527344 314.613281 235.804688 311.324219 262.917969 300.207031 C 263.933594 299.789062 265.039062 299.59375 266.847656 299.085938 C 264.84375 303.476562 260.90625 303.445312 258.074219 304.757812 C 221.054688 321.902344 182.816406 324.523438 143.875 312.777344 C 125.671875 307.289062 109.222656 297.632812 94.945312 285.214844 C 82.316406 274.234375 72.746094 260.527344 65.648438 245.121094 C 52.609375 216.832031 53.832031 188.601562 63.332031 159.535156 C 72.566406 131.277344 88.917969 108.066406 109.875 87.699219 C 117.644531 80.144531 127.996094 76.832031 138.070312 74.316406 C 156.390625 69.742188 175.074219 66.460938 194.128906 69.160156 C 233.238281 74.703125 266.503906 90.863281 291.488281 122.453125 C 303.085938 137.117188 312.621094 153.011719 316.570312 171.144531 C 325.15625 210.609375 320.789062 247.921875 291.265625 278.261719 Z M 271.183594 87.957031 C 237.609375 63.808594 200.339844 53.003906 158.863281 58.660156 C 197.742188 45.191406 234.21875 52.261719 267.835938 73.773438 C 308.929688 100.066406 330.921875 137.929688 331.5 187.238281 C 324.5625 146.199219 305.277344 112.476562 271.183594 87.957031 Z M 271.183594 87.957031 " fill-opacity="1" fill-rule="nonzero"/></g><path fill="#000000" d="M 95.527344 265.527344 C 95.582031 265.566406 95.640625 265.601562 95.695312 265.644531 C 95.703125 265.546875 95.699219 265.453125 95.714844 265.351562 Z M 95.527344 265.527344 " fill-opacity="1" fill-rule="nonzero"/><path fill="#000000" d="M 239.785156 182.875 C 226.441406 187.304688 212.476562 185.121094 198.902344 186.910156 C 194.578125 187.480469 193.683594 185.429688 193.75 181.753906 C 193.875 175.007812 193.785156 168.261719 193.785156 161.519531 C 196.363281 146.503906 192.601562 131.730469 192.359375 116.820312 C 192.304688 113.621094 191.28125 111.277344 187.523438 111.433594 C 184.125 111.570312 183.386719 113.953125 183.238281 116.722656 C 183.148438 118.355469 183.058594 120.003906 183.207031 121.625 C 185.015625 141.800781 180.933594 161.566406 179.144531 181.496094 C 178.796875 185.320312 177.945312 187.964844 173.023438 187.992188 C 157.1875 188.082031 141.355469 188.714844 125.519531 188.925781 C 120.101562 188.996094 114.625 190.367188 114.4375 196.035156 C 114.214844 202.660156 120.613281 201.785156 125.097656 201.652344 C 140.472656 201.195312 155.867188 200.832031 171.195312 199.660156 C 177.515625 199.175781 178.339844 201.726562 177.910156 206.773438 C 176.835938 219.351562 178.121094 231.910156 178.449219 244.472656 C 178.511719 246.960938 177.917969 250.199219 180.53125 251.511719 C 184.417969 253.457031 183.820312 256.726562 183.929688 259.871094 C 184.039062 262.902344 183.808594 265.945312 183.917969 268.976562 C 184.015625 271.582031 184.371094 274.789062 187.484375 274.945312 C 191.25 275.132812 190.824219 271.578125 190.640625 269.183594 C 188.957031 247.183594 192.570312 225.421875 193.421875 203.542969 C 193.574219 199.546875 194.550781 197.820312 198.953125 197.667969 C 212.933594 197.179688 226.898438 196.21875 240.871094 195.429688 C 246.773438 195.097656 250.875 191.46875 249.777344 187.160156 C 248.386719 181.699219 244.253906 181.390625 239.785156 182.875 Z M 239.785156 182.875 " fill-opacity="1" fill-rule="nonzero"/><path fill="#000000" d="M 95.519531 265.53125 C 95.527344 265.527344 95.714844 265.351562 95.714844 265.351562 C 95.542969 265.28125 95.394531 265.191406 95.226562 265.117188 C 95.324219 265.253906 95.421875 265.390625 95.519531 265.53125 Z M 95.519531 265.53125 " fill-opacity="1" fill-rule="nonzero"/><path fill="#000000" d="M 95.226562 265.117188 C 90.175781 257.988281 85.128906 250.851562 80.082031 243.71875 C 83.984375 251.707031 86.1875 260.960938 95.226562 265.117188 Z M 95.226562 265.117188 " fill-opacity="1" fill-rule="nonzero"/></svg>