<svg xmlns="http://www.w3.org/2000/svg" xmlns:xlink="http://www.w3.org/1999/xlink" width="500" zoomAndPan="magnify" viewBox="0 0 375 374.999991" height="500" preserveAspectRatio="xMidYMid meet" version="1.0"><defs><g/><clipPath id="2169bc2ac8"><path d="M 37.5 100 L 337.5 100 L 337.5 300 L 37.5 300 Z M 37.5 100 " clip-rule="nonzero"/></clipPath><clipPath id="20132778d8"><path d="M 70 75.136719 L 188 75.136719 L 188 259 L 70 259 Z M 70 75.136719 " clip-rule="nonzero"/></clipPath><clipPath id="205ded03da"><path d="M 187 75.136719 L 305 75.136719 L 305 259 L 187 259 Z M 187 75.136719 " clip-rule="nonzero"/></clipPath></defs><g clip-path="url(#2169bc2ac8)"><path fill="#000000" d="M 304.019531 100.105469 L 70.980469 100.105469 C 52.59375 100.105469 37.6875 115.011719 37.6875 133.398438 L 37.6875 258.242188 C 37.6875 276.625 52.59375 291.53125 70.980469 291.53125 L 165.992188 291.53125 C 170.320312 296.492188 178.285156 299.855469 187.5 299.855469 C 196.714844 299.855469 204.6875 296.492188 209.007812 291.53125 L 304.019531 291.53125 C 322.40625 291.53125 337.3125 276.625 337.3125 258.242188 L 337.3125 133.398438 C 337.3125 115.011719 322.40625 100.105469 304.019531 100.105469 Z M 304.019531 100.105469 " fill-opacity="1" fill-rule="nonzero"/></g><path fill="#444444" d="M 204.144531 266.5625 C 204.144531 275.75 196.6875 283.210938 187.5 283.210938 C 178.3125 283.210938 170.855469 275.75 170.855469 266.5625 L 170.855469 116.75 C 170.855469 107.5625 178.3125 100.105469 187.5 100.105469 C 196.6875 100.105469 204.144531 107.5625 204.144531 116.75 Z M 204.144531 266.5625 " fill-opacity="1" fill-rule="nonzero"/><path fill="#afafaf" d="M 187.5 258.242188 C 187.5 267.429688 180.042969 274.886719 170.855469 274.886719 L 70.980469 274.886719 C 61.789062 274.886719 54.332031 267.429688 54.332031 258.242188 L 54.332031 108.429688 C 54.332031 99.238281 61.789062 91.78125 70.980469 91.78125 L 170.855469 91.78125 C 180.042969 91.78125 187.5 99.238281 187.5 108.429688 Z M 187.5 258.242188 " fill-opacity="1" fill-rule="nonzero"/><g clip-path="url(#20132778d8)"><path fill="#e8e8e8" d="M 187.5 258.242188 C 179.183594 241.609375 157.0625 241.59375 154.207031 241.59375 C 137.5625 241.59375 112.59375 258.242188 87.625 258.242188 C 79.300781 258.242188 70.980469 250.78125 70.980469 241.59375 L 70.980469 108.429688 C 70.980469 99.238281 79.300781 91.78125 87.625 91.78125 C 114.714844 91.78125 137.5625 75.136719 154.207031 75.136719 C 179.175781 75.136719 187.5 90.917969 187.5 100.105469 Z M 187.5 258.242188 " fill-opacity="1" fill-rule="nonzero"/></g><path fill="#afafaf" d="M 320.667969 258.242188 C 320.667969 267.429688 313.210938 274.886719 304.019531 274.886719 L 204.144531 274.886719 C 194.957031 274.886719 187.5 267.429688 187.5 258.242188 L 187.5 108.429688 C 187.5 99.238281 194.957031 91.78125 204.144531 91.78125 L 304.019531 91.78125 C 313.210938 91.78125 320.667969 99.238281 320.667969 108.429688 Z M 320.667969 258.242188 " fill-opacity="1" fill-rule="nonzero"/><g clip-path="url(#205ded03da)"><path fill="#e1e1e1" d="M 187.5 258.242188 C 195.816406 241.609375 217.9375 241.59375 220.792969 241.59375 C 237.4375 241.59375 262.40625 258.242188 287.375 258.242188 C 295.699219 258.242188 304.019531 250.78125 304.019531 241.59375 L 304.019531 108.429688 C 304.019531 99.238281 295.699219 91.78125 287.375 91.78125 C 260.277344 91.78125 237.4375 75.136719 220.792969 75.136719 C 195.824219 75.136719 187.5 90.917969 187.5 100.105469 Z M 187.5 258.242188 " fill-opacity="1" fill-rule="nonzero"/></g><g fill="#000000" fill-opacity="1"><g transform="translate(68.585847, 68.970792)"><g><path d="M 10.171875 0.203125 C 9.054688 0.203125 8.179688 0.015625 7.546875 -0.359375 C 6.921875 -0.734375 6.472656 -1.410156 6.203125 -2.390625 L 1.03125 -19.9375 C 1.007812 -20.070312 1.164062 -20.332031 1.5 -20.71875 C 1.84375 -21.101562 2.335938 -21.457031 2.984375 -21.78125 C 3.640625 -22.101562 4.414062 -22.265625 5.3125 -22.265625 C 6.132812 -22.265625 6.898438 -21.984375 7.609375 -21.421875 C 8.316406 -20.859375 8.796875 -19.914062 9.046875 -18.59375 L 10.859375 -9 L 13.1875 -17.703125 C 13.363281 -18.523438 13.789062 -19.144531 14.46875 -19.5625 C 15.144531 -19.988281 15.960938 -20.203125 16.921875 -20.203125 C 17.835938 -20.203125 18.632812 -19.976562 19.3125 -19.53125 C 20 -19.09375 20.4375 -18.484375 20.625 -17.703125 L 22.90625 -9.046875 L 24.734375 -18.703125 C 24.960938 -19.929688 25.414062 -20.832031 26.09375 -21.40625 C 26.78125 -21.976562 27.570312 -22.265625 28.46875 -22.265625 C 29.28125 -22.265625 29.992188 -22.109375 30.609375 -21.796875 C 31.234375 -21.492188 31.707031 -21.140625 32.03125 -20.734375 C 32.363281 -20.335938 32.507812 -20.070312 32.46875 -19.9375 L 27.46875 -2.390625 C 27.195312 -1.460938 26.726562 -0.796875 26.0625 -0.390625 C 25.40625 0.00390625 24.523438 0.203125 23.421875 0.203125 C 22.328125 0.203125 21.445312 0.00390625 20.78125 -0.390625 C 20.125 -0.796875 19.660156 -1.476562 19.390625 -2.4375 L 16.8125 -11.578125 L 14.28125 -2.4375 C 14.03125 -1.476562 13.554688 -0.796875 12.859375 -0.390625 C 12.160156 0.00390625 11.265625 0.203125 10.171875 0.203125 Z M 10.171875 0.203125 "/></g></g></g><g fill="#000000" fill-opacity="1"><g transform="translate(102.1171, 68.970792)"><g><path d="M 0.78125 -8.453125 C 0.78125 -10.210938 1.160156 -11.757812 1.921875 -13.09375 C 2.691406 -14.4375 3.78125 -15.476562 5.1875 -16.21875 C 6.59375 -16.957031 8.21875 -17.328125 10.0625 -17.328125 C 11.894531 -17.328125 13.503906 -16.957031 14.890625 -16.21875 C 16.285156 -15.476562 17.359375 -14.429688 18.109375 -13.078125 C 18.867188 -11.734375 19.25 -10.179688 19.25 -8.421875 C 19.25 -6.640625 18.863281 -5.078125 18.09375 -3.734375 C 17.332031 -2.390625 16.25 -1.347656 14.84375 -0.609375 C 13.4375 0.117188 11.8125 0.484375 9.96875 0.484375 C 8.113281 0.484375 6.492188 0.117188 5.109375 -0.609375 C 3.734375 -1.347656 2.664062 -2.390625 1.90625 -3.734375 C 1.15625 -5.078125 0.78125 -6.648438 0.78125 -8.453125 Z M 13.671875 -8.421875 C 13.671875 -9.566406 13.332031 -10.503906 12.65625 -11.234375 C 11.976562 -11.960938 11.101562 -12.328125 10.03125 -12.328125 C 8.957031 -12.328125 8.078125 -11.96875 7.390625 -11.25 C 6.710938 -10.53125 6.375 -9.597656 6.375 -8.453125 C 6.375 -7.296875 6.710938 -6.359375 7.390625 -5.640625 C 8.078125 -4.921875 8.957031 -4.5625 10.03125 -4.5625 C 11.082031 -4.5625 11.953125 -4.925781 12.640625 -5.65625 C 13.328125 -6.382812 13.671875 -7.304688 13.671875 -8.421875 Z M 13.671875 -8.421875 "/></g></g></g><g fill="#000000" fill-opacity="1"><g transform="translate(122.153657, 68.970792)"><g><path d="M 11.890625 -17.328125 C 12.984375 -17.328125 13.851562 -17.003906 14.5 -16.359375 C 15.15625 -15.722656 15.484375 -14.867188 15.484375 -13.796875 C 15.484375 -13.003906 15.320312 -12.34375 15 -11.8125 C 14.675781 -11.289062 14.320312 -10.90625 13.9375 -10.65625 C 13.550781 -10.40625 13.332031 -10.300781 13.28125 -10.34375 C 12.601562 -10.9375 11.828125 -11.234375 10.953125 -11.234375 C 9.035156 -11.234375 8.078125 -9.84375 8.078125 -7.0625 L 8.078125 -3.015625 C 8.078125 -0.890625 7.109375 0.171875 5.171875 0.171875 L 4.484375 0.171875 C 3.523438 0.171875 2.785156 -0.0664062 2.265625 -0.546875 C 1.753906 -1.023438 1.5 -1.847656 1.5 -3.015625 L 1.5 -16.40625 C 1.5 -16.539062 1.757812 -16.695312 2.28125 -16.875 C 2.8125 -17.0625 3.382812 -17.15625 4 -17.15625 C 5.625 -17.15625 6.753906 -16.484375 7.390625 -15.140625 C 7.503906 -14.929688 7.632812 -14.578125 7.78125 -14.078125 C 8.050781 -15.054688 8.546875 -15.84375 9.265625 -16.4375 C 9.984375 -17.03125 10.859375 -17.328125 11.890625 -17.328125 Z M 11.890625 -17.328125 "/></g></g></g><g fill="#000000" fill-opacity="1"><g transform="translate(137.977403, 68.970792)"><g><path d="M 8.453125 0.484375 C 6.929688 0.484375 5.585938 0.109375 4.421875 -0.640625 C 3.253906 -1.398438 2.347656 -2.457031 1.703125 -3.8125 C 1.066406 -5.175781 0.75 -6.722656 0.75 -8.453125 C 0.75 -10.265625 1.066406 -11.835938 1.703125 -13.171875 C 2.347656 -14.503906 3.253906 -15.53125 4.421875 -16.25 C 5.585938 -16.96875 6.945312 -17.328125 8.5 -17.328125 C 9.539062 -17.328125 10.488281 -17.113281 11.34375 -16.6875 C 12.207031 -16.269531 12.890625 -15.707031 13.390625 -15 L 13.390625 -23.359375 C 13.390625 -23.492188 13.65625 -23.648438 14.1875 -23.828125 C 14.726562 -24.015625 15.304688 -24.109375 15.921875 -24.109375 C 17.066406 -24.109375 18.023438 -23.726562 18.796875 -22.96875 C 19.578125 -22.21875 19.96875 -20.929688 19.96875 -19.109375 L 19.96875 -3.015625 C 19.96875 -0.890625 19 0.171875 17.0625 0.171875 L 16.40625 0.171875 C 15.675781 0.171875 15.078125 0.0351562 14.609375 -0.234375 C 14.140625 -0.515625 13.8125 -0.984375 13.625 -1.640625 C 13.539062 -2.023438 13.484375 -2.359375 13.453125 -2.640625 C 13.003906 -1.679688 12.335938 -0.921875 11.453125 -0.359375 C 10.578125 0.203125 9.578125 0.484375 8.453125 0.484375 Z M 13.390625 -10.34375 C 13.117188 -10.9375 12.722656 -11.398438 12.203125 -11.734375 C 11.691406 -12.066406 11.082031 -12.234375 10.375 -12.234375 C 9.351562 -12.234375 8.53125 -11.890625 7.90625 -11.203125 C 7.289062 -10.515625 6.984375 -9.585938 6.984375 -8.421875 C 6.984375 -7.304688 7.285156 -6.394531 7.890625 -5.6875 C 8.492188 -4.976562 9.289062 -4.625 10.28125 -4.625 C 11.1875 -4.625 11.929688 -4.890625 12.515625 -5.421875 C 13.097656 -5.960938 13.390625 -6.691406 13.390625 -7.609375 Z M 13.390625 -10.34375 "/></g></g></g><g fill="#000000" fill-opacity="1"><g transform="translate(227.121683, 322.174198)"><g><path d="M 1.546875 -19.0625 C 1.546875 -20.144531 1.804688 -20.960938 2.328125 -21.515625 C 2.859375 -22.078125 3.625 -22.359375 4.625 -22.359375 L 6.546875 -22.359375 C 7.441406 -22.359375 8.09375 -22.226562 8.5 -21.96875 C 8.914062 -21.707031 9.285156 -21.222656 9.609375 -20.515625 L 13.203125 -11.65625 L 16.765625 -20.515625 C 17.109375 -21.242188 17.484375 -21.734375 17.890625 -21.984375 C 18.304688 -22.234375 18.914062 -22.359375 19.71875 -22.359375 L 21.671875 -22.359375 C 22.703125 -22.359375 23.484375 -22.078125 24.015625 -21.515625 C 24.554688 -20.960938 24.828125 -20.144531 24.828125 -19.0625 L 24.828125 -3.015625 C 24.828125 -1.941406 24.613281 -1.140625 24.1875 -0.609375 C 23.769531 -0.0859375 23.082031 0.171875 22.125 0.171875 L 21.0625 0.171875 C 20.125 0.171875 19.4375 -0.0859375 19 -0.609375 C 18.5625 -1.140625 18.34375 -1.941406 18.34375 -3.015625 L 18.34375 -6 L 18.390625 -12.546875 L 16.078125 -6 C 16.054688 -5.90625 15.976562 -5.6875 15.84375 -5.34375 C 15.707031 -5 15.421875 -4.742188 14.984375 -4.578125 C 14.554688 -4.410156 13.953125 -4.328125 13.171875 -4.328125 C 12.160156 -4.328125 11.488281 -4.429688 11.15625 -4.640625 C 10.832031 -4.859375 10.617188 -5.109375 10.515625 -5.390625 C 10.410156 -5.679688 10.335938 -5.882812 10.296875 -6 L 8.03125 -12.25 L 8.03125 -3.015625 C 8.03125 -1.941406 7.820312 -1.140625 7.40625 -0.609375 C 7 -0.0859375 6.3125 0.171875 5.34375 0.171875 L 4.21875 0.171875 C 3.28125 0.171875 2.597656 -0.0859375 2.171875 -0.609375 C 1.753906 -1.140625 1.546875 -1.941406 1.546875 -3.015625 Z M 1.546875 -19.0625 "/></g></g></g><g fill="#000000" fill-opacity="1"><g transform="translate(253.48991, 322.174198)"><g><path d="M 0.71875 -4.53125 C 0.71875 -6.332031 1.601562 -7.703125 3.375 -8.640625 C 5.144531 -9.578125 7.703125 -10.054688 11.046875 -10.078125 L 11.765625 -10.078125 C 11.765625 -10.242188 11.738281 -10.441406 11.6875 -10.671875 C 11.53125 -12.015625 10.675781 -12.6875 9.125 -12.6875 C 7.40625 -12.6875 6.273438 -12.015625 5.734375 -10.671875 C 5.679688 -10.640625 5.566406 -10.613281 5.390625 -10.59375 C 5.222656 -10.570312 5.015625 -10.5625 4.765625 -10.5625 C 3.898438 -10.5625 3.117188 -10.738281 2.421875 -11.09375 C 1.722656 -11.445312 1.375 -12.082031 1.375 -13 C 1.375 -13.9375 1.671875 -14.710938 2.265625 -15.328125 C 3.429688 -16.679688 5.84375 -17.359375 9.5 -17.359375 C 12.519531 -17.359375 14.738281 -16.742188 16.15625 -15.515625 C 17.570312 -14.296875 18.28125 -12.453125 18.28125 -9.984375 L 18.28125 -0.453125 C 18.28125 -0.265625 18.007812 -0.09375 17.46875 0.0625 C 16.9375 0.226562 16.347656 0.3125 15.703125 0.3125 C 14.191406 0.3125 13.117188 -0.257812 12.484375 -1.40625 C 12.253906 -1.863281 12.117188 -2.238281 12.078125 -2.53125 C 11.523438 -1.625 10.742188 -0.914062 9.734375 -0.40625 C 8.734375 0.09375 7.601562 0.34375 6.34375 0.34375 C 4.625 0.34375 3.253906 -0.09375 2.234375 -0.96875 C 1.222656 -1.851562 0.71875 -3.039062 0.71875 -4.53125 Z M 11.765625 -7.3125 L 10.84375 -7.265625 C 8.113281 -7.222656 6.75 -6.539062 6.75 -5.21875 C 6.75 -4.707031 6.925781 -4.300781 7.28125 -4 C 7.632812 -3.707031 8.113281 -3.5625 8.71875 -3.5625 C 9.601562 -3.5625 10.316406 -3.796875 10.859375 -4.265625 C 11.410156 -4.734375 11.710938 -5.367188 11.765625 -6.171875 Z M 11.765625 -7.3125 "/></g></g></g><g fill="#000000" fill-opacity="1"><g transform="translate(273.000339, 322.174198)"><g><path d="M 9.1875 0.484375 C 5.207031 0.484375 3.21875 -1.539062 3.21875 -5.59375 L 3.21875 -12.03125 L 2.78125 -12.03125 C 1.9375 -12.03125 1.296875 -12.21875 0.859375 -12.59375 C 0.421875 -12.976562 0.203125 -13.535156 0.203125 -14.265625 L 0.203125 -14.640625 C 0.203125 -15.398438 0.421875 -15.984375 0.859375 -16.390625 C 1.296875 -16.804688 1.9375 -17.015625 2.78125 -17.015625 L 3.21875 -17.015625 L 3.21875 -18.65625 C 3.21875 -19.6875 3.46875 -20.46875 3.96875 -21 C 4.476562 -21.539062 5.210938 -21.8125 6.171875 -21.8125 L 6.75 -21.8125 C 7.71875 -21.8125 8.445312 -21.578125 8.9375 -21.109375 C 9.425781 -20.640625 9.671875 -19.820312 9.671875 -18.65625 L 9.671875 -17.015625 L 11.625 -17.015625 C 13.34375 -17.015625 14.203125 -16.269531 14.203125 -14.78125 L 14.203125 -14.40625 C 14.203125 -12.820312 13.320312 -12.03125 11.5625 -12.03125 L 9.5625 -12.03125 L 9.5625 -6.34375 C 9.5625 -5.195312 10.046875 -4.625 11.015625 -4.625 C 11.742188 -4.625 12.359375 -4.976562 12.859375 -5.6875 C 12.972656 -5.6875 13.144531 -5.582031 13.375 -5.375 C 13.601562 -5.175781 13.8125 -4.894531 14 -4.53125 C 14.195312 -4.164062 14.296875 -3.742188 14.296875 -3.265625 C 14.296875 -2.390625 13.988281 -1.617188 13.375 -0.953125 C 12.9375 -0.503906 12.359375 -0.15625 11.640625 0.09375 C 10.921875 0.351562 10.101562 0.484375 9.1875 0.484375 Z M 9.1875 0.484375 "/></g></g></g><g fill="#000000" fill-opacity="1"><g transform="translate(287.847496, 322.174198)"><g><path d="M 0.78125 -8.296875 C 0.78125 -10.015625 1.171875 -11.5625 1.953125 -12.9375 C 2.734375 -14.320312 3.804688 -15.40625 5.171875 -16.1875 C 6.546875 -16.96875 8.09375 -17.359375 9.8125 -17.359375 C 11.5 -17.359375 13.007812 -16.988281 14.34375 -16.25 C 15.6875 -15.519531 16.726562 -14.515625 17.46875 -13.234375 C 18.21875 -11.953125 18.59375 -10.503906 18.59375 -8.890625 L 18.59375 -8.578125 C 18.5625 -8.046875 18.445312 -7.648438 18.25 -7.390625 C 18.0625 -7.128906 17.726562 -7 17.25 -7 L 6.40625 -7 C 6.457031 -6.769531 6.503906 -6.609375 6.546875 -6.515625 C 6.773438 -5.710938 7.238281 -5.085938 7.9375 -4.640625 C 8.632812 -4.203125 9.472656 -3.984375 10.453125 -3.984375 C 11.441406 -3.984375 12.285156 -4.171875 12.984375 -4.546875 C 13.679688 -4.921875 14.1875 -5.414062 14.5 -6.03125 C 14.53125 -6.101562 14.828125 -6.078125 15.390625 -5.953125 C 15.960938 -5.828125 16.476562 -5.570312 16.9375 -5.1875 C 17.394531 -4.8125 17.625 -4.25 17.625 -3.5 C 17.625 -2.925781 17.457031 -2.398438 17.125 -1.921875 C 16.800781 -1.441406 16.328125 -1.019531 15.703125 -0.65625 C 14.378906 0.101562 12.550781 0.484375 10.21875 0.484375 C 7.3125 0.484375 5.007812 -0.289062 3.3125 -1.84375 C 1.625 -3.40625 0.78125 -5.554688 0.78125 -8.296875 Z M 12.71875 -10.046875 C 12.675781 -11.035156 12.390625 -11.796875 11.859375 -12.328125 C 11.335938 -12.867188 10.617188 -13.140625 9.703125 -13.140625 C 8.835938 -13.140625 8.109375 -12.847656 7.515625 -12.265625 C 6.921875 -11.679688 6.578125 -10.941406 6.484375 -10.046875 Z M 12.71875 -10.046875 "/></g></g></g></svg>