<svg xmlns="http://www.w3.org/2000/svg" xmlns:xlink="http://www.w3.org/1999/xlink" width="300" zoomAndPan="magnify" viewBox="0 0 224.87999 56.249996" height="75" preserveAspectRatio="xMidYMid meet" version="1.0"><defs><g/><clipPath id="ca79391afe"><path d="M 2.539062 11 L 51.386719 11 L 51.386719 44.148438 L 2.539062 44.148438 Z M 2.539062 11 " clip-rule="nonzero"/></clipPath><clipPath id="bc797a2c48"><path d="M 7 7.882812 L 27 7.882812 L 27 38 L 7 38 Z M 7 7.882812 " clip-rule="nonzero"/></clipPath><clipPath id="d88f03ebd8"><path d="M 26 7.882812 L 46 7.882812 L 46 38 L 26 38 Z M 26 7.882812 " clip-rule="nonzero"/></clipPath></defs><g fill="#000000" fill-opacity="1"><g transform="translate(59.445589, 38.438302)"><g><path d="M 9.703125 0.203125 C 8.640625 0.203125 7.804688 0.0234375 7.203125 -0.328125 C 6.609375 -0.691406 6.175781 -1.34375 5.90625 -2.28125 L 0.984375 -19.015625 C 0.960938 -19.148438 1.113281 -19.398438 1.4375 -19.765625 C 1.757812 -20.140625 2.234375 -20.476562 2.859375 -20.78125 C 3.484375 -21.082031 4.21875 -21.234375 5.0625 -21.234375 C 5.84375 -21.234375 6.570312 -20.96875 7.25 -20.4375 C 7.925781 -19.90625 8.382812 -19.003906 8.625 -17.734375 L 10.359375 -8.59375 L 12.578125 -16.890625 C 12.753906 -17.671875 13.160156 -18.265625 13.796875 -18.671875 C 14.441406 -19.078125 15.222656 -19.28125 16.140625 -19.28125 C 17.015625 -19.28125 17.773438 -19.066406 18.421875 -18.640625 C 19.078125 -18.210938 19.492188 -17.628906 19.671875 -16.890625 L 21.859375 -8.625 L 23.59375 -17.84375 C 23.8125 -19.019531 24.242188 -19.878906 24.890625 -20.421875 C 25.546875 -20.960938 26.300781 -21.234375 27.15625 -21.234375 C 27.9375 -21.234375 28.617188 -21.085938 29.203125 -20.796875 C 29.796875 -20.503906 30.25 -20.164062 30.5625 -19.78125 C 30.875 -19.40625 31.007812 -19.148438 30.96875 -19.015625 L 26.203125 -2.28125 C 25.941406 -1.394531 25.492188 -0.757812 24.859375 -0.375 C 24.234375 0.0078125 23.394531 0.203125 22.34375 0.203125 C 21.300781 0.203125 20.460938 0.0078125 19.828125 -0.375 C 19.203125 -0.757812 18.757812 -1.40625 18.5 -2.3125 L 16.046875 -11.046875 L 13.625 -2.3125 C 13.382812 -1.40625 12.929688 -0.757812 12.265625 -0.375 C 11.597656 0.0078125 10.742188 0.203125 9.703125 0.203125 Z M 9.703125 0.203125 "/></g></g></g><g fill="#000000" fill-opacity="1"><g transform="translate(91.427554, 38.438302)"><g><path d="M 0.75 -8.0625 C 0.75 -9.738281 1.113281 -11.210938 1.84375 -12.484375 C 2.570312 -13.765625 3.601562 -14.757812 4.9375 -15.46875 C 6.28125 -16.175781 7.835938 -16.53125 9.609375 -16.53125 C 11.347656 -16.53125 12.878906 -16.175781 14.203125 -15.46875 C 15.535156 -14.757812 16.5625 -13.757812 17.28125 -12.46875 C 18 -11.1875 18.359375 -9.707031 18.359375 -8.03125 C 18.359375 -6.332031 17.992188 -4.84375 17.265625 -3.5625 C 16.535156 -2.28125 15.5 -1.289062 14.15625 -0.59375 C 12.820312 0.101562 11.269531 0.453125 9.5 0.453125 C 7.738281 0.453125 6.195312 0.101562 4.875 -0.59375 C 3.5625 -1.289062 2.546875 -2.28125 1.828125 -3.5625 C 1.109375 -4.84375 0.75 -6.34375 0.75 -8.0625 Z M 13.03125 -8.03125 C 13.03125 -9.125 12.707031 -10.019531 12.0625 -10.71875 C 11.425781 -11.414062 10.597656 -11.765625 9.578125 -11.765625 C 8.546875 -11.765625 7.703125 -11.421875 7.046875 -10.734375 C 6.398438 -10.046875 6.078125 -9.15625 6.078125 -8.0625 C 6.078125 -6.957031 6.398438 -6.0625 7.046875 -5.375 C 7.703125 -4.6875 8.546875 -4.34375 9.578125 -4.34375 C 10.578125 -4.34375 11.398438 -4.691406 12.046875 -5.390625 C 12.703125 -6.085938 13.03125 -6.96875 13.03125 -8.03125 Z M 13.03125 -8.03125 "/></g></g></g><g fill="#000000" fill-opacity="1"><g transform="translate(110.53833, 38.438302)"><g><path d="M 11.34375 -16.53125 C 12.382812 -16.53125 13.210938 -16.222656 13.828125 -15.609375 C 14.453125 -15.003906 14.765625 -14.191406 14.765625 -13.171875 C 14.765625 -12.398438 14.613281 -11.765625 14.3125 -11.265625 C 14.007812 -10.765625 13.671875 -10.394531 13.296875 -10.15625 C 12.921875 -9.914062 12.710938 -9.816406 12.671875 -9.859375 C 12.023438 -10.429688 11.285156 -10.71875 10.453125 -10.71875 C 8.617188 -10.71875 7.703125 -9.390625 7.703125 -6.734375 L 7.703125 -2.875 C 7.703125 -0.851562 6.78125 0.15625 4.9375 0.15625 L 4.28125 0.15625 C 3.363281 0.15625 2.660156 -0.0664062 2.171875 -0.515625 C 1.679688 -0.972656 1.4375 -1.757812 1.4375 -2.875 L 1.4375 -15.65625 C 1.4375 -15.78125 1.6875 -15.929688 2.1875 -16.109375 C 2.6875 -16.285156 3.234375 -16.375 3.828125 -16.375 C 5.367188 -16.375 6.445312 -15.726562 7.0625 -14.4375 C 7.164062 -14.238281 7.285156 -13.898438 7.421875 -13.421875 C 7.679688 -14.359375 8.148438 -15.109375 8.828125 -15.671875 C 9.515625 -16.242188 10.351562 -16.53125 11.34375 -16.53125 Z M 11.34375 -16.53125 "/></g></g></g><g fill="#000000" fill-opacity="1"><g transform="translate(125.630947, 38.438302)"><g><path d="M 8.0625 0.453125 C 6.601562 0.453125 5.316406 0.09375 4.203125 -0.625 C 3.097656 -1.34375 2.238281 -2.347656 1.625 -3.640625 C 1.019531 -4.941406 0.71875 -6.414062 0.71875 -8.0625 C 0.71875 -9.789062 1.019531 -11.289062 1.625 -12.5625 C 2.238281 -13.832031 3.097656 -14.8125 4.203125 -15.5 C 5.316406 -16.1875 6.617188 -16.53125 8.109375 -16.53125 C 9.109375 -16.53125 10.015625 -16.328125 10.828125 -15.921875 C 11.648438 -15.523438 12.300781 -14.988281 12.78125 -14.3125 L 12.78125 -22.28125 C 12.78125 -22.414062 13.035156 -22.566406 13.546875 -22.734375 C 14.054688 -22.910156 14.601562 -23 15.1875 -23 C 16.28125 -23 17.195312 -22.640625 17.9375 -21.921875 C 18.675781 -21.203125 19.046875 -19.972656 19.046875 -18.234375 L 19.046875 -2.875 C 19.046875 -0.851562 18.117188 0.15625 16.265625 0.15625 L 15.65625 0.15625 C 14.957031 0.15625 14.382812 0.0234375 13.9375 -0.234375 C 13.488281 -0.492188 13.175781 -0.9375 13 -1.5625 C 12.914062 -1.9375 12.863281 -2.253906 12.84375 -2.515625 C 12.40625 -1.597656 11.765625 -0.875 10.921875 -0.34375 C 10.085938 0.1875 9.132812 0.453125 8.0625 0.453125 Z M 12.78125 -9.859375 C 12.507812 -10.429688 12.128906 -10.875 11.640625 -11.1875 C 11.148438 -11.5 10.570312 -11.65625 9.90625 -11.65625 C 8.914062 -11.65625 8.128906 -11.328125 7.546875 -10.671875 C 6.960938 -10.023438 6.671875 -9.144531 6.671875 -8.03125 C 6.671875 -6.96875 6.957031 -6.097656 7.53125 -5.421875 C 8.101562 -4.742188 8.859375 -4.40625 9.796875 -4.40625 C 10.671875 -4.40625 11.382812 -4.660156 11.9375 -5.171875 C 12.5 -5.691406 12.78125 -6.382812 12.78125 -7.25 Z M 12.78125 -9.859375 "/></g></g></g><g fill="#000000" fill-opacity="1"><g transform="translate(146.113768, 38.438302)"><g><path d="M 1.46875 -18.171875 C 1.46875 -19.191406 1.71875 -19.96875 2.21875 -20.5 C 2.71875 -21.03125 3.445312 -21.296875 4.40625 -21.296875 L 6.234375 -21.296875 C 7.085938 -21.296875 7.707031 -21.171875 8.09375 -20.921875 C 8.488281 -20.671875 8.835938 -20.207031 9.140625 -19.53125 L 12.578125 -11.109375 L 15.984375 -19.53125 C 16.304688 -20.226562 16.660156 -20.695312 17.046875 -20.9375 C 17.441406 -21.175781 18.019531 -21.296875 18.78125 -21.296875 L 20.65625 -21.296875 C 21.632812 -21.296875 22.378906 -21.03125 22.890625 -20.5 C 23.398438 -19.96875 23.65625 -19.191406 23.65625 -18.171875 L 23.65625 -2.875 C 23.65625 -1.851562 23.453125 -1.09375 23.046875 -0.59375 C 22.648438 -0.09375 21.992188 0.15625 21.078125 0.15625 L 20.0625 0.15625 C 19.164062 0.15625 18.507812 -0.09375 18.09375 -0.59375 C 17.6875 -1.09375 17.484375 -1.851562 17.484375 -2.875 L 17.484375 -5.71875 L 17.515625 -11.953125 L 15.328125 -5.71875 C 15.304688 -5.632812 15.226562 -5.425781 15.09375 -5.09375 C 14.957031 -4.769531 14.679688 -4.523438 14.265625 -4.359375 C 13.859375 -4.191406 13.285156 -4.109375 12.546875 -4.109375 C 11.585938 -4.109375 10.945312 -4.210938 10.625 -4.421875 C 10.3125 -4.628906 10.101562 -4.867188 10 -5.140625 C 9.90625 -5.410156 9.835938 -5.601562 9.796875 -5.71875 L 7.640625 -11.65625 L 7.640625 -2.875 C 7.640625 -1.851562 7.441406 -1.09375 7.046875 -0.59375 C 6.660156 -0.09375 6.007812 0.15625 5.09375 0.15625 L 4.015625 0.15625 C 3.117188 0.15625 2.46875 -0.09375 2.0625 -0.59375 C 1.664062 -1.09375 1.46875 -1.851562 1.46875 -2.875 Z M 1.46875 -18.171875 "/></g></g></g><g fill="#000000" fill-opacity="1"><g transform="translate(171.235465, 38.438302)"><g><path d="M 0.6875 -4.3125 C 0.6875 -6.03125 1.53125 -7.335938 3.21875 -8.234375 C 4.90625 -9.128906 7.335938 -9.585938 10.515625 -9.609375 L 11.203125 -9.609375 C 11.203125 -9.753906 11.179688 -9.9375 11.140625 -10.15625 C 10.984375 -11.445312 10.164062 -12.09375 8.6875 -12.09375 C 7.050781 -12.09375 5.972656 -11.445312 5.453125 -10.15625 C 5.410156 -10.132812 5.304688 -10.113281 5.140625 -10.09375 C 4.984375 -10.070312 4.785156 -10.0625 4.546875 -10.0625 C 3.710938 -10.0625 2.960938 -10.226562 2.296875 -10.5625 C 1.640625 -10.90625 1.3125 -11.507812 1.3125 -12.375 C 1.3125 -13.269531 1.59375 -14.015625 2.15625 -14.609375 C 3.269531 -15.890625 5.566406 -16.53125 9.046875 -16.53125 C 11.921875 -16.53125 14.035156 -15.945312 15.390625 -14.78125 C 16.742188 -13.613281 17.421875 -11.851562 17.421875 -9.5 L 17.421875 -0.421875 C 17.421875 -0.242188 17.160156 -0.0820312 16.640625 0.0625 C 16.128906 0.21875 15.570312 0.296875 14.96875 0.296875 C 13.53125 0.296875 12.503906 -0.25 11.890625 -1.34375 C 11.671875 -1.78125 11.539062 -2.140625 11.5 -2.421875 C 10.976562 -1.546875 10.238281 -0.867188 9.28125 -0.390625 C 8.320312 0.0859375 7.242188 0.328125 6.046875 0.328125 C 4.410156 0.328125 3.109375 -0.0859375 2.140625 -0.921875 C 1.171875 -1.765625 0.6875 -2.894531 0.6875 -4.3125 Z M 11.203125 -6.953125 L 10.328125 -6.921875 C 7.734375 -6.878906 6.4375 -6.226562 6.4375 -4.96875 C 6.4375 -4.488281 6.601562 -4.101562 6.9375 -3.8125 C 7.28125 -3.53125 7.734375 -3.390625 8.296875 -3.390625 C 9.148438 -3.390625 9.835938 -3.613281 10.359375 -4.0625 C 10.878906 -4.507812 11.160156 -5.113281 11.203125 -5.875 Z M 11.203125 -6.953125 "/></g></g></g><g fill="#000000" fill-opacity="1"><g transform="translate(189.823549, 38.438302)"><g><path d="M 8.75 0.453125 C 4.96875 0.453125 3.078125 -1.472656 3.078125 -5.328125 L 3.078125 -11.46875 L 2.640625 -11.46875 C 1.835938 -11.46875 1.226562 -11.644531 0.8125 -12 C 0.40625 -12.363281 0.203125 -12.894531 0.203125 -13.59375 L 0.203125 -13.953125 C 0.203125 -14.671875 0.40625 -15.222656 0.8125 -15.609375 C 1.226562 -16.003906 1.835938 -16.203125 2.640625 -16.203125 L 3.078125 -16.203125 L 3.078125 -17.78125 C 3.078125 -18.757812 3.316406 -19.503906 3.796875 -20.015625 C 4.273438 -20.523438 4.96875 -20.78125 5.875 -20.78125 L 6.4375 -20.78125 C 7.351562 -20.78125 8.046875 -20.554688 8.515625 -20.109375 C 8.984375 -19.660156 9.21875 -18.882812 9.21875 -17.78125 L 9.21875 -16.203125 L 11.078125 -16.203125 C 12.710938 -16.203125 13.53125 -15.492188 13.53125 -14.078125 L 13.53125 -13.71875 C 13.53125 -12.21875 12.691406 -11.46875 11.015625 -11.46875 L 9.109375 -11.46875 L 9.109375 -6.046875 C 9.109375 -4.953125 9.566406 -4.40625 10.484375 -4.40625 C 11.179688 -4.40625 11.769531 -4.742188 12.25 -5.421875 C 12.363281 -5.421875 12.523438 -5.320312 12.734375 -5.125 C 12.953125 -4.925781 13.15625 -4.65625 13.34375 -4.3125 C 13.53125 -3.96875 13.625 -3.566406 13.625 -3.109375 C 13.625 -2.273438 13.328125 -1.546875 12.734375 -0.921875 C 12.328125 -0.484375 11.78125 -0.144531 11.09375 0.09375 C 10.40625 0.332031 9.625 0.453125 8.75 0.453125 Z M 8.75 0.453125 "/></g></g></g><g fill="#000000" fill-opacity="1"><g transform="translate(203.968793, 38.438302)"><g><path d="M 0.75 -7.90625 C 0.75 -9.539062 1.117188 -11.015625 1.859375 -12.328125 C 2.597656 -13.648438 3.617188 -14.679688 4.921875 -15.421875 C 6.234375 -16.160156 7.707031 -16.53125 9.34375 -16.53125 C 10.957031 -16.53125 12.398438 -16.179688 13.671875 -15.484375 C 14.941406 -14.785156 15.929688 -13.828125 16.640625 -12.609375 C 17.347656 -11.390625 17.703125 -10.007812 17.703125 -8.46875 L 17.703125 -8.171875 C 17.679688 -7.671875 17.578125 -7.296875 17.390625 -7.046875 C 17.210938 -6.796875 16.894531 -6.671875 16.4375 -6.671875 L 6.109375 -6.671875 C 6.148438 -6.453125 6.191406 -6.296875 6.234375 -6.203125 C 6.453125 -5.441406 6.894531 -4.847656 7.5625 -4.421875 C 8.226562 -4.003906 9.03125 -3.796875 9.96875 -3.796875 C 10.90625 -3.796875 11.703125 -3.972656 12.359375 -4.328125 C 13.023438 -4.691406 13.507812 -5.164062 13.8125 -5.75 C 13.84375 -5.8125 14.128906 -5.78125 14.671875 -5.65625 C 15.210938 -5.539062 15.703125 -5.300781 16.140625 -4.9375 C 16.578125 -4.582031 16.796875 -4.046875 16.796875 -3.328125 C 16.796875 -2.785156 16.632812 -2.285156 16.3125 -1.828125 C 16 -1.367188 15.550781 -0.96875 14.96875 -0.625 C 13.695312 0.09375 11.953125 0.453125 9.734375 0.453125 C 6.972656 0.453125 4.785156 -0.285156 3.171875 -1.765625 C 1.554688 -3.242188 0.75 -5.289062 0.75 -7.90625 Z M 12.125 -9.578125 C 12.082031 -10.515625 11.804688 -11.238281 11.296875 -11.75 C 10.796875 -12.257812 10.113281 -12.515625 9.25 -12.515625 C 8.414062 -12.515625 7.71875 -12.234375 7.15625 -11.671875 C 6.59375 -11.117188 6.265625 -10.421875 6.171875 -9.578125 Z M 12.125 -9.578125 "/></g></g></g><g clip-path="url(#ca79391afe)"><path fill="#000000" d="M 45.636719 11.921875 L 7.957031 11.921875 C 4.984375 11.921875 2.574219 14.332031 2.574219 17.304688 L 2.574219 37.488281 C 2.574219 40.460938 4.984375 42.871094 7.957031 42.871094 L 23.320312 42.871094 C 24.019531 43.675781 25.304688 44.21875 26.796875 44.21875 C 28.285156 44.21875 29.574219 43.675781 30.273438 42.871094 L 45.636719 42.871094 C 48.609375 42.871094 51.019531 40.460938 51.019531 37.488281 L 51.019531 17.304688 C 51.019531 14.332031 48.609375 11.921875 45.636719 11.921875 Z M 45.636719 11.921875 " fill-opacity="1" fill-rule="nonzero"/></g><path fill="#444444" d="M 29.488281 38.835938 C 29.488281 40.320312 28.28125 41.527344 26.796875 41.527344 C 25.3125 41.527344 24.105469 40.320312 24.105469 38.835938 L 24.105469 14.613281 C 24.105469 13.125 25.3125 11.921875 26.796875 11.921875 C 28.28125 11.921875 29.488281 13.125 29.488281 14.613281 Z M 29.488281 38.835938 " fill-opacity="1" fill-rule="nonzero"/><path fill="#afafaf" d="M 26.796875 37.488281 C 26.796875 38.976562 25.589844 40.179688 24.105469 40.179688 L 7.957031 40.179688 C 6.46875 40.179688 5.265625 38.976562 5.265625 37.488281 L 5.265625 13.265625 C 5.265625 11.78125 6.46875 10.574219 7.957031 10.574219 L 24.105469 10.574219 C 25.589844 10.574219 26.796875 11.78125 26.796875 13.265625 Z M 26.796875 37.488281 " fill-opacity="1" fill-rule="nonzero"/><g clip-path="url(#bc797a2c48)"><path fill="#e8e8e8" d="M 26.796875 37.488281 C 25.453125 34.800781 21.875 34.796875 21.414062 34.796875 C 18.722656 34.796875 14.683594 37.488281 10.648438 37.488281 C 9.300781 37.488281 7.957031 36.285156 7.957031 34.796875 L 7.957031 13.265625 C 7.957031 11.78125 9.300781 10.574219 10.648438 10.574219 C 15.027344 10.574219 18.722656 7.882812 21.414062 7.882812 C 25.449219 7.882812 26.796875 10.433594 26.796875 11.921875 Z M 26.796875 37.488281 " fill-opacity="1" fill-rule="nonzero"/></g><path fill="#afafaf" d="M 48.328125 37.488281 C 48.328125 38.976562 47.121094 40.179688 45.636719 40.179688 L 29.488281 40.179688 C 28.003906 40.179688 26.796875 38.976562 26.796875 37.488281 L 26.796875 13.265625 C 26.796875 11.78125 28.003906 10.574219 29.488281 10.574219 L 45.636719 10.574219 C 47.121094 10.574219 48.328125 11.78125 48.328125 13.265625 Z M 48.328125 37.488281 " fill-opacity="1" fill-rule="nonzero"/><g clip-path="url(#d88f03ebd8)"><path fill="#e1e1e1" d="M 26.796875 37.488281 C 28.140625 34.800781 31.71875 34.796875 32.179688 34.796875 C 34.871094 34.796875 38.910156 37.488281 42.945312 37.488281 C 44.292969 37.488281 45.636719 36.285156 45.636719 34.796875 L 45.636719 13.265625 C 45.636719 11.78125 44.292969 10.574219 42.945312 10.574219 C 38.5625 10.574219 34.871094 7.882812 32.179688 7.882812 C 28.140625 7.882812 26.796875 10.433594 26.796875 11.921875 Z M 26.796875 37.488281 " fill-opacity="1" fill-rule="nonzero"/></g></svg>