<svg xmlns="http://www.w3.org/2000/svg" xmlns:xlink="http://www.w3.org/1999/xlink" width="500" zoomAndPan="magnify" viewBox="0 0 375 374.999991" height="500" preserveAspectRatio="xMidYMid meet" version="1.0"><defs><clipPath id="aa5c466ad8"><path d="M 37.5 37.5 L 337.5 37.5 L 337.5 337.5 L 37.5 337.5 Z M 37.5 37.5 " clip-rule="nonzero"/></clipPath><clipPath id="0546a17fed"><path d="M 94 98 L 280 98 L 280 277.113281 L 94 277.113281 Z M 94 98 " clip-rule="nonzero"/></clipPath></defs><g clip-path="url(#aa5c466ad8)"><path fill="#231f20" d="M 187.5 37.5 C 104.636719 37.5 37.5 104.699219 37.5 187.5 C 37.5 270.300781 104.636719 337.5 187.5 337.5 C 270.363281 337.5 337.5 270.300781 337.5 187.5 C 337.5 104.699219 270.363281 37.5 187.5 37.5 Z M 187.5 328.003906 C 109.898438 328.003906 46.996094 265.101562 46.996094 187.5 C 46.996094 109.898438 109.898438 46.996094 187.5 46.996094 C 265.101562 46.996094 328.003906 109.898438 328.003906 187.5 C 328.003906 265.101562 265.101562 328.003906 187.5 328.003906 Z M 187.5 328.003906 " fill-opacity="1" fill-rule="nonzero"/></g><g clip-path="url(#0546a17fed)"><path fill="#000000" d="M 272.90625 165.492188 C 272.90625 165.492188 272.90625 165.082031 272.90625 165.492188 L 263.125 157.75 L 263.125 129.640625 C 263.125 125.566406 259.863281 122.308594 255.789062 122.308594 L 218.703125 122.308594 L 188.949219 98.679688 C 187.726562 97.863281 186.097656 97.863281 185.285156 98.679688 L 155.941406 122.308594 L 118.855469 122.308594 C 114.777344 122.308594 111.519531 125.566406 111.519531 129.640625 L 111.519531 157.75 L 102.144531 165.082031 C 102.144531 165.082031 102.144531 165.492188 101.738281 165.492188 C 95.625 172.417969 94.808594 181.785156 94.808594 185.453125 L 94.808594 248.597656 C 94.808594 262.449219 102.144531 277.113281 123.335938 277.113281 L 251.304688 277.113281 C 265.160156 277.113281 279.832031 269.78125 279.832031 248.597656 L 279.832031 185.453125 C 280.238281 176.898438 277.792969 170.378906 272.90625 165.492188 Z M 265.570312 167.121094 L 263.125 168.75 L 263.125 165.082031 Z M 187.726562 104.789062 L 209.734375 122.308594 L 165.722656 122.308594 Z M 119.261719 128.417969 L 256.195312 128.417969 C 256.601562 128.417969 257.417969 128.824219 257.417969 129.640625 L 257.417969 173.636719 L 187.726562 221.710938 L 118.039062 173.230469 L 118.039062 129.234375 C 118.039062 128.824219 118.445312 128.417969 119.261719 128.417969 Z M 111.925781 165.492188 L 111.925781 169.15625 L 109.886719 167.121094 Z M 101.328125 185.453125 C 101.328125 183.007812 101.738281 176.898438 104.996094 171.601562 L 166.128906 213.96875 L 104.183594 260.410156 C 101.738281 255.929688 101.328125 251.042969 101.328125 248.597656 Z M 123.746094 271.003906 C 116 271.003906 111.109375 268.558594 107.851562 265.300781 L 171.425781 217.636719 L 186.097656 227.820312 C 186.097656 227.820312 186.097656 227.820312 186.507812 227.820312 C 186.507812 227.820312 186.507812 227.820312 186.914062 227.820312 C 187.320312 227.820312 187.726562 228.226562 188.136719 228.226562 C 188.542969 228.226562 188.949219 228.226562 189.359375 227.820312 C 189.359375 227.820312 189.359375 227.820312 189.765625 227.820312 C 189.765625 227.820312 189.765625 227.820312 190.171875 227.820312 L 204.4375 218.042969 L 268.015625 265.707031 C 262.714844 270.597656 255.378906 271.003906 252.527344 271.003906 Z M 274.128906 248.597656 C 274.128906 253.894531 272.90625 257.558594 271.273438 260.820312 L 208.921875 214.378906 L 270.050781 171.601562 C 272.496094 175.269531 273.71875 179.75 273.71875 185.453125 L 273.71875 248.597656 Z M 274.128906 248.597656 " fill-opacity="1" fill-rule="nonzero"/></g><path fill="#000000" d="M 138.007812 147.972656 L 204.84375 147.972656 C 206.476562 147.972656 208.105469 146.75 208.105469 144.714844 C 208.105469 142.675781 206.882812 141.453125 204.84375 141.453125 L 138.007812 141.453125 C 136.378906 141.453125 134.75 142.675781 134.75 144.714844 C 134.75 146.75 136.378906 147.972656 138.007812 147.972656 Z M 138.007812 147.972656 " fill-opacity="1" fill-rule="nonzero"/><path fill="#000000" d="M 138.007812 170.378906 L 237.449219 170.378906 C 239.078125 170.378906 240.707031 169.15625 240.707031 167.121094 C 240.707031 165.082031 239.484375 163.859375 237.449219 163.859375 L 138.007812 163.859375 C 136.378906 163.859375 134.75 165.082031 134.75 167.121094 C 134.75 169.15625 136.378906 170.378906 138.007812 170.378906 Z M 138.007812 170.378906 " fill-opacity="1" fill-rule="nonzero"/></svg>