<svg xmlns="http://www.w3.org/2000/svg" xmlns:xlink="http://www.w3.org/1999/xlink" width="500" zoomAndPan="magnify" viewBox="0 0 375 374.999991" height="500" preserveAspectRatio="xMidYMid meet" version="1.0"><defs><clipPath id="7dcee9bf53"><path d="M 37.5 37.5 L 337.5 37.5 L 337.5 337.5 L 37.5 337.5 Z M 37.5 37.5 " clip-rule="nonzero"/></clipPath></defs><g clip-path="url(#7dcee9bf53)"><path fill="#231f20" d="M 187.5 37.5 C 104.636719 37.5 37.5 104.699219 37.5 187.5 C 37.5 270.300781 104.636719 337.5 187.5 337.5 C 270.363281 337.5 337.5 270.300781 337.5 187.5 C 337.5 104.699219 270.363281 37.5 187.5 37.5 Z M 187.5 328.003906 C 109.898438 328.003906 46.996094 265.101562 46.996094 187.5 C 46.996094 109.898438 109.898438 46.996094 187.5 46.996094 C 265.101562 46.996094 328.003906 109.898438 328.003906 187.5 C 328.003906 265.101562 265.101562 328.003906 187.5 328.003906 Z M 187.5 328.003906 " fill-opacity="1" fill-rule="nonzero"/></g><path stroke-linecap="butt" transform="matrix(6.333113, 0, 0, 6.333113, 69.347856, 83.003608)" fill="none" stroke-linejoin="miter" d="M 12.667761 22.621106 L 1.031254 17.488115 L 1.031254 15.812275 L 12.667761 10.00019 L 12.667761 12.812788 L 4.652474 16.527144 L 12.667761 19.820227 Z M 23.496263 7.867303 L 17.109322 25.000095 L 13.863116 25.000095 L 20.250057 7.867303 Z M 24.644741 19.820227 L 32.660028 16.527144 L 24.644741 12.812788 L 24.644741 10.00019 L 36.281248 15.812275 L 36.281248 17.488115 L 24.644741 22.621106 Z M 24.644741 19.820227 " stroke="#000000" stroke-width="0.9" stroke-opacity="1" stroke-miterlimit="4"/></svg>