<svg xmlns="http://www.w3.org/2000/svg" xmlns:xlink="http://www.w3.org/1999/xlink" width="500" zoomAndPan="magnify" viewBox="0 0 375 374.999991" height="500" preserveAspectRatio="xMidYMid meet" version="1.0"><defs><clipPath id="0ff03cb45e"><path d="M 37.5 37.5 L 337.5 37.5 L 337.5 337.5 L 37.5 337.5 Z M 37.5 37.5 " clip-rule="nonzero"/></clipPath><clipPath id="4629a1b459"><path d="M 106 150 L 135 150 L 135 282.105469 L 106 282.105469 Z M 106 150 " clip-rule="nonzero"/></clipPath><clipPath id="8b4b9582db"><path d="M 165 148 L 279.214844 148 L 279.214844 282.105469 L 165 282.105469 Z M 165 148 " clip-rule="nonzero"/></clipPath><clipPath id="774fcf34be"><path d="M 95.464844 93.105469 L 146 93.105469 L 146 144 L 95.464844 144 Z M 95.464844 93.105469 " clip-rule="nonzero"/></clipPath></defs><g clip-path="url(#0ff03cb45e)"><path fill="#231f20" d="M 187.5 37.5 C 104.636719 37.5 37.5 104.699219 37.5 187.5 C 37.5 270.300781 104.636719 337.5 187.5 337.5 C 270.363281 337.5 337.5 270.300781 337.5 187.5 C 337.5 104.699219 270.363281 37.5 187.5 37.5 Z M 187.5 328.003906 C 109.898438 328.003906 46.996094 265.101562 46.996094 187.5 C 46.996094 109.898438 109.898438 46.996094 187.5 46.996094 C 265.101562 46.996094 328.003906 109.898438 328.003906 187.5 C 328.003906 265.101562 265.101562 328.003906 187.5 328.003906 Z M 187.5 328.003906 " fill-opacity="1" fill-rule="nonzero"/></g><g clip-path="url(#4629a1b459)"><path fill="#000000" d="M 131.871094 282.082031 L 109.058594 282.082031 C 108.703125 282.082031 108.359375 282.015625 108.03125 281.875 C 107.699219 281.738281 107.410156 281.542969 107.15625 281.292969 C 106.90625 281.039062 106.710938 280.746094 106.574219 280.414062 C 106.4375 280.085938 106.367188 279.742188 106.367188 279.382812 L 106.367188 153.5625 C 106.367188 153.207031 106.4375 152.863281 106.574219 152.53125 C 106.710938 152.199219 106.90625 151.910156 107.15625 151.65625 C 107.410156 151.402344 107.699219 151.207031 108.03125 151.070312 C 108.359375 150.933594 108.703125 150.863281 109.058594 150.863281 L 131.871094 150.863281 C 132.230469 150.863281 132.574219 150.933594 132.902344 151.070312 C 133.234375 151.207031 133.523438 151.402344 133.777344 151.65625 C 134.027344 151.910156 134.222656 152.199219 134.359375 152.53125 C 134.496094 152.863281 134.5625 153.207031 134.5625 153.5625 L 134.5625 279.382812 C 134.5625 279.742188 134.496094 280.085938 134.359375 280.414062 C 134.222656 280.746094 134.027344 281.039062 133.777344 281.292969 C 133.523438 281.542969 133.234375 281.738281 132.902344 281.875 C 132.574219 282.015625 132.230469 282.082031 131.871094 282.082031 Z M 111.753906 276.683594 L 129.179688 276.683594 L 129.179688 156.261719 L 111.753906 156.261719 Z M 111.753906 276.683594 " fill-opacity="1" fill-rule="nonzero"/></g><g clip-path="url(#8b4b9582db)"><path fill="#000000" d="M 276.515625 282.082031 L 253.703125 282.082031 C 253.347656 282.082031 253.003906 282.015625 252.671875 281.875 C 252.34375 281.738281 252.054688 281.542969 251.800781 281.292969 C 251.546875 281.039062 251.351562 280.746094 251.21875 280.414062 C 251.082031 280.085938 251.011719 279.742188 251.011719 279.382812 L 251.011719 206.855469 C 251.011719 191.128906 246.4375 172.378906 224.671875 172.378906 C 209.851562 172.378906 199.921875 183.175781 196.65625 193.867188 C 196.644531 193.910156 196.628906 193.957031 196.613281 194.003906 C 195.726562 196.445312 195.21875 199.992188 195.21875 203.738281 L 195.21875 279.382812 C 195.21875 279.742188 195.152344 280.085938 195.015625 280.414062 C 194.878906 280.746094 194.683594 281.039062 194.429688 281.292969 C 194.179688 281.542969 193.886719 281.738281 193.558594 281.875 C 193.226562 282.015625 192.882812 282.082031 192.527344 282.082031 L 169.714844 282.082031 C 169.359375 282.082031 169.015625 282.015625 168.6875 281.875 C 168.355469 281.738281 168.066406 281.542969 167.8125 281.292969 C 167.5625 281.039062 167.367188 280.746094 167.230469 280.414062 C 167.09375 280.085938 167.023438 279.742188 167.023438 279.382812 L 167.023438 187.617188 C 167.023438 173.539062 166.71875 163.414062 165.996094 153.765625 C 165.96875 153.390625 166.015625 153.027344 166.140625 152.671875 C 166.261719 152.316406 166.453125 152.003906 166.707031 151.726562 C 166.960938 151.453125 167.261719 151.242188 167.601562 151.089844 C 167.945312 150.941406 168.304688 150.863281 168.679688 150.863281 L 188.898438 150.863281 C 189.242188 150.863281 189.570312 150.925781 189.890625 151.054688 C 190.210938 151.179688 190.492188 151.359375 190.746094 151.59375 C 190.996094 151.832031 191.191406 152.101562 191.339844 152.414062 C 191.484375 152.726562 191.566406 153.050781 191.589844 153.394531 L 192.421875 166.757812 C 195.835938 162.386719 199.890625 158.71875 204.578125 155.761719 C 212.617188 150.6875 222.164062 148.003906 232.191406 148.003906 C 237.355469 148.011719 242.386719 148.820312 247.289062 150.433594 C 253.09375 152.359375 258.265625 155.335938 262.664062 159.277344 C 267.777344 163.867188 271.773438 169.71875 274.535156 176.675781 C 277.632812 184.480469 279.210938 193.757812 279.210938 204.246094 L 279.210938 279.382812 C 279.210938 279.742188 279.140625 280.085938 279.003906 280.417969 C 278.867188 280.746094 278.671875 281.039062 278.421875 281.292969 C 278.167969 281.546875 277.875 281.742188 277.546875 281.878906 C 277.214844 282.015625 276.871094 282.082031 276.515625 282.082031 Z M 256.394531 276.683594 L 273.824219 276.683594 L 273.824219 204.253906 C 273.824219 185.867188 268.859375 172.089844 259.070312 163.308594 C 249.109375 154.367188 236.949219 153.402344 232.1875 153.402344 C 211.886719 153.402344 198.683594 164.875 193.101562 175.609375 C 192.867188 176.054688 192.539062 176.40625 192.109375 176.667969 C 191.679688 176.929688 191.214844 177.058594 190.714844 177.058594 L 190.195312 177.058594 C 189.851562 177.058594 189.519531 176.996094 189.203125 176.871094 C 188.882812 176.746094 188.597656 176.566406 188.347656 176.328125 C 188.097656 176.09375 187.898438 175.820312 187.753906 175.511719 C 187.609375 175.199219 187.523438 174.871094 187.503906 174.527344 L 186.363281 156.261719 L 171.5625 156.261719 C 172.148438 165.203125 172.402344 174.792969 172.402344 187.617188 L 172.402344 276.683594 L 189.835938 276.683594 L 189.835938 203.734375 C 189.835938 199.355469 190.4375 195.269531 191.527344 192.222656 C 192.609375 188.738281 194.167969 185.488281 196.207031 182.46875 C 198.246094 179.449219 200.679688 176.792969 203.507812 174.5 C 209.609375 169.582031 216.925781 166.980469 224.667969 166.980469 C 230.277344 166.980469 235.269531 168.074219 239.5 170.230469 C 243.5 172.269531 246.855469 175.269531 249.480469 179.148438 C 254.066406 185.933594 256.390625 195.257812 256.390625 206.855469 Z M 256.394531 276.683594 " fill-opacity="1" fill-rule="nonzero"/></g><g clip-path="url(#774fcf34be)"><path fill="#000000" d="M 120.339844 143.03125 C 119.847656 143.03125 119.390625 142.90625 118.96875 142.65625 C 118.546875 142.402344 118.214844 142.0625 117.980469 141.628906 L 110.511719 127.9375 L 96.859375 120.449219 C 96.425781 120.210938 96.085938 119.882812 95.835938 119.457031 C 95.582031 119.03125 95.457031 118.574219 95.457031 118.078125 C 95.457031 117.585938 95.582031 117.128906 95.835938 116.703125 C 96.085938 116.277344 96.425781 115.949219 96.859375 115.710938 L 110.511719 108.222656 L 117.980469 94.53125 C 118.214844 94.097656 118.546875 93.753906 118.96875 93.503906 C 119.390625 93.25 119.847656 93.125 120.339844 93.125 C 120.832031 93.125 121.292969 93.25 121.714844 93.503906 C 122.136719 93.753906 122.46875 94.097656 122.703125 94.53125 L 130.171875 108.222656 L 143.824219 115.710938 C 144.253906 115.949219 144.597656 116.277344 144.847656 116.703125 C 145.097656 117.128906 145.222656 117.585938 145.222656 118.078125 C 145.222656 118.574219 145.097656 119.03125 144.847656 119.457031 C 144.597656 119.882812 144.253906 120.210938 143.824219 120.449219 L 130.171875 127.9375 L 122.703125 141.628906 C 122.46875 142.0625 122.136719 142.402344 121.714844 142.65625 C 121.289062 142.90625 120.832031 143.03125 120.339844 143.03125 Z M 103.753906 118.078125 L 113.78125 123.578125 C 114.246094 123.832031 114.605469 124.1875 114.859375 124.652344 L 120.34375 134.707031 L 125.828125 124.652344 C 126.082031 124.1875 126.441406 123.832031 126.902344 123.578125 L 136.929688 118.078125 L 126.902344 112.578125 C 126.441406 112.328125 126.082031 111.96875 125.828125 111.507812 L 120.34375 101.453125 L 114.859375 111.507812 C 114.605469 111.972656 114.246094 112.328125 113.78125 112.578125 Z M 103.753906 118.078125 " fill-opacity="1" fill-rule="nonzero"/></g></svg>