<svg xmlns="http://www.w3.org/2000/svg" xmlns:xlink="http://www.w3.org/1999/xlink" width="500" zoomAndPan="magnify" viewBox="0 0 375 374.999991" height="500" preserveAspectRatio="xMidYMid meet" version="1.0"><defs><clipPath id="c5539d169e"><path d="M 42.035156 33.050781 L 332.953125 33.050781 L 332.953125 342 L 42.035156 342 Z M 42.035156 33.050781 " clip-rule="nonzero"/></clipPath></defs><g clip-path="url(#c5539d169e)"><path fill="#ffffff" d="M 43.800781 117.53125 C 44.863281 111.941406 45.523438 106.148438 47.589844 100.929688 C 50.21875 94.269531 52.214844 87.199219 56.820312 81.429688 C 57.28125 80.75 57.695312 80.042969 58.074219 79.3125 C 59.742188 76.683594 61.28125 73.949219 63.160156 71.464844 C 64.902344 69.289062 66.773438 67.222656 68.769531 65.273438 C 70.785156 63.203125 72.882812 61.214844 74.992188 59.242188 C 77.105469 57.273438 79.234375 54.886719 81.710938 53.21875 C 86.699219 49.855469 91.625 46.429688 97.015625 43.59375 C 101.453125 41.292969 106.042969 39.351562 110.785156 37.773438 C 117.035156 35.648438 123.6875 34.675781 130.214844 33.449219 C 132.34375 33.050781 134.617188 33.359375 136.824219 33.449219 C 143.703125 33.667969 150.605469 33.640625 157.453125 34.25 C 165.613281 34.96875 173.496094 37.222656 181.128906 40.199219 C 185.746094 42.070312 190.207031 44.25 194.515625 46.742188 C 197.613281 48.480469 200.199219 51.15625 203.34375 52.769531 C 207.503906 54.90625 210.542969 58.292969 213.914062 61.265625 C 219.046875 65.820312 223.03125 71.472656 227.074219 77.050781 C 230.867188 82.285156 233.207031 88.21875 235.992188 93.925781 C 237.625 97.515625 238.832031 101.246094 239.609375 105.113281 C 240.976562 111.222656 242.234375 117.382812 243.003906 123.582031 C 244.136719 132.609375 244.332031 141.664062 241.601562 150.53125 C 241.472656 150.964844 241.414062 151.402344 241.425781 151.855469 C 241.554688 156.011719 240.023438 159.824219 238.820312 163.667969 C 237.898438 166.625 236.320312 169.378906 235.222656 172.289062 C 233.253906 177.539062 230.3125 182.28125 227.492188 187.046875 C 225.378906 190.628906 222.53125 193.78125 219.945312 197.066406 C 218.378906 199.046875 216.679688 200.914062 214.902344 203.007812 C 217.089844 205.6875 219.160156 208.480469 221.503906 211.035156 C 224.179688 213.953125 227.125 216.628906 229.894531 219.464844 C 234.945312 224.628906 239.878906 229.90625 244.996094 235.007812 C 250.257812 240.253906 255.734375 245.273438 261.035156 250.515625 C 266.90625 256.339844 272.664062 262.289062 278.46875 268.179688 C 283.707031 273.503906 288.945312 278.828125 294.191406 284.152344 C 298.59375 288.640625 302.949219 293.191406 307.363281 297.683594 C 311.933594 302.335938 316.617188 306.878906 321.121094 311.589844 C 325.132812 315.785156 328.976562 320.140625 332.910156 324.421875 C 329.289062 330.964844 324.097656 335.285156 319.695312 340.25 C 318.273438 341.855469 316.980469 341.835938 315.488281 340.417969 C 308.027344 333.351562 300.605469 326.261719 293.226562 319.148438 C 289.457031 315.488281 285.863281 311.652344 282.109375 307.980469 C 275.523438 301.566406 268.84375 295.21875 262.269531 288.789062 C 256.609375 283.253906 251.050781 277.617188 245.417969 272.054688 C 242.683594 269.355469 239.855469 266.753906 237.132812 264.046875 C 233.285156 260.199219 229.433594 256.289062 225.617188 252.402344 C 224.066406 250.828125 222.53125 249.242188 221.007812 247.648438 C 216.03125 242.421875 211.054688 237.195312 206.078125 231.964844 C 204.402344 230.207031 202.703125 228.480469 201.035156 226.714844 C 198.652344 224.199219 196.300781 221.660156 193.839844 219.015625 C 191.789062 220.171875 190.164062 221.382812 188.347656 222.0625 C 181.175781 224.753906 174.007812 227.5 166.699219 229.765625 C 163.195312 230.847656 159.378906 230.957031 155.695312 231.414062 C 151.894531 231.882812 148.089844 232.472656 144.28125 232.574219 C 139.660156 232.695312 135.035156 232.8125 130.402344 231.886719 C 126.011719 231.007812 121.507812 230.757812 117.234375 229.199219 C 115.066406 228.402344 112.78125 227.914062 110.574219 227.210938 C 108.238281 226.472656 105.804688 225.925781 103.644531 224.824219 C 99 222.492188 94.410156 220.015625 89.949219 217.347656 C 86 214.980469 81.90625 212.652344 78.484375 209.617188 C 73.589844 205.359375 69.082031 200.726562 64.964844 195.710938 C 60.953125 190.609375 57.390625 185.214844 54.273438 179.523438 C 51.917969 175.3125 50.457031 170.601562 48.640625 166.09375 C 45.304688 157.847656 43.976562 149.160156 43.007812 140.378906 C 42.128906 132.722656 42.394531 125.109375 43.800781 117.53125 Z M 43.800781 117.53125 " fill-opacity="1" fill-rule="nonzero"/><path fill="#000000" d="M 332.863281 324.433594 C 328.929688 320.128906 325.085938 315.773438 321.078125 311.601562 C 316.585938 306.890625 311.886719 302.347656 307.320312 297.695312 C 302.90625 293.203125 298.546875 288.660156 294.144531 284.164062 C 288.917969 278.824219 283.679688 273.5 278.425781 268.191406 C 272.648438 262.300781 266.875 256.355469 260.992188 250.527344 C 255.71875 245.296875 250.238281 240.261719 244.949219 235.019531 C 239.816406 229.886719 234.902344 224.644531 229.851562 219.476562 C 227.078125 216.640625 224.132812 213.964844 221.457031 211.046875 C 219.117188 208.480469 217.042969 205.703125 214.855469 203.019531 C 216.632812 200.925781 218.332031 199.058594 219.898438 197.078125 C 222.464844 193.792969 225.335938 190.660156 227.445312 187.0625 C 230.269531 182.292969 233.21875 177.550781 235.175781 172.304688 C 236.273438 169.390625 237.851562 166.636719 238.777344 163.679688 C 239.976562 159.828125 241.511719 156.023438 241.382812 151.867188 C 241.367188 151.417969 241.425781 150.976562 241.554688 150.542969 C 244.289062 141.675781 244.089844 132.621094 242.960938 123.59375 C 242.191406 117.398438 240.933594 111.238281 239.566406 105.128906 C 238.789062 101.257812 237.582031 97.527344 235.949219 93.9375 C 233.164062 88.234375 230.8125 82.296875 227.027344 77.0625 C 222.984375 71.484375 219.027344 65.832031 213.867188 61.277344 C 210.5 58.304688 207.453125 54.917969 203.300781 52.78125 C 200.15625 51.171875 197.570312 48.496094 194.46875 46.757812 C 190.160156 44.261719 185.699219 42.082031 181.085938 40.210938 C 173.46875 37.234375 165.578125 34.980469 157.410156 34.261719 C 150.5625 33.652344 143.65625 33.679688 136.777344 33.460938 C 134.570312 33.390625 132.289062 33.082031 130.171875 33.460938 C 123.644531 34.6875 116.992188 35.660156 110.742188 37.785156 C 106 39.367188 101.40625 41.304688 96.96875 43.605469 C 91.582031 46.433594 86.652344 49.863281 81.667969 53.230469 C 79.191406 54.898438 77.144531 57.195312 74.949219 59.253906 C 72.753906 61.316406 70.738281 63.214844 68.726562 65.289062 C 66.730469 67.238281 64.859375 69.300781 63.117188 71.480469 C 61.28125 73.949219 59.722656 76.683594 58.074219 79.3125 C 57.6875 80.042969 57.257812 80.75 56.789062 81.429688 C 52.183594 87.207031 50.1875 94.265625 47.554688 100.929688 C 45.488281 106.148438 44.828125 111.941406 43.769531 117.53125 C 42.367188 125.097656 42.101562 132.703125 42.976562 140.347656 C 43.945312 149.125 45.273438 157.816406 48.609375 166.058594 C 50.425781 170.550781 51.886719 175.28125 54.242188 179.488281 C 57.367188 185.195312 60.941406 190.601562 64.964844 195.710938 C 69.078125 200.742188 73.585938 205.394531 78.484375 209.667969 C 81.90625 212.703125 86 215.03125 89.949219 217.398438 C 94.410156 220.066406 99 222.53125 103.644531 224.875 C 105.804688 225.957031 108.238281 226.523438 110.574219 227.261719 C 112.78125 227.953125 115.066406 228.453125 117.234375 229.25 C 121.507812 230.808594 126.011719 231.058594 130.402344 231.9375 C 135.035156 232.863281 139.660156 232.746094 144.28125 232.625 C 148.089844 232.523438 151.894531 231.933594 155.695312 231.464844 C 159.378906 231.007812 163.195312 230.898438 166.699219 229.816406 C 174.007812 227.550781 181.175781 224.804688 188.347656 222.117188 C 190.164062 221.433594 191.789062 220.191406 193.839844 219.066406 C 196.300781 221.691406 198.652344 224.199219 201.035156 226.765625 C 202.703125 228.53125 204.402344 230.257812 206.078125 232.015625 C 211.058594 237.238281 216.035156 242.464844 221.007812 247.699219 C 222.53125 249.296875 224.066406 250.882812 225.617188 252.453125 C 229.464844 256.339844 233.265625 260.25 237.132812 264.097656 C 239.855469 266.808594 242.683594 269.40625 245.417969 272.105469 C 251.050781 277.671875 256.609375 283.304688 262.269531 288.839844 C 268.84375 295.257812 275.523438 301.605469 282.109375 308.035156 C 285.863281 311.703125 289.457031 315.539062 293.226562 319.199219 C 300.585938 326.332031 307.992188 333.429688 315.441406 340.480469 C 316.9375 341.898438 318.226562 341.917969 319.652344 340.316406 C 324.054688 335.296875 329.246094 330.980469 332.863281 324.433594 Z M 220.6875 138.691406 L 221.046875 138.757812 C 220.574219 141.613281 220.183594 144.488281 219.605469 147.324219 C 217.242188 159.019531 212.730469 169.78125 205.449219 179.308594 C 201.097656 185.007812 196.382812 190.28125 190.53125 194.484375 C 188.078125 196.242188 185.71875 198.136719 183.210938 199.804688 C 181.027344 201.371094 178.710938 202.707031 176.261719 203.808594 C 171.953125 205.527344 167.449219 206.742188 163.101562 208.351562 C 154.808594 211.414062 146.089844 211.425781 137.535156 211.367188 C 132.449219 211.410156 127.472656 210.683594 122.609375 209.1875 C 114.148438 206.425781 105.929688 203.351562 98.710938 197.976562 C 97.027344 196.726562 95.007812 195.863281 93.511719 194.441406 C 90.058594 191.15625 86.734375 187.722656 83.535156 184.175781 C 78.078125 178.15625 73.78125 171.402344 70.644531 163.910156 C 69.207031 160.496094 68.351562 156.851562 67.113281 153.328125 C 65.078125 147.292969 64.089844 141.089844 64.148438 134.722656 C 64.09375 126.378906 64.726562 118.039062 67.144531 109.902344 C 68.164062 106.570312 69.449219 103.347656 70.996094 100.226562 C 73.089844 95.695312 75.492188 91.335938 78.195312 87.140625 C 82.570312 80.714844 87.839844 75.128906 94.007812 70.386719 C 102.796875 63.527344 112.234375 57.882812 123.367188 55.785156 C 128.75 54.769531 134.230469 53.46875 139.640625 53.570312 C 150.242188 53.761719 160.757812 54.796875 170.792969 59.023438 C 176.953125 61.625 182.933594 64.554688 188.222656 68.46875 C 193.507812 72.382812 198.957031 76.292969 202.804688 81.847656 C 204.398438 84.144531 206.1875 86.296875 207.753906 88.597656 C 211.378906 93.929688 214.492188 99.570312 216.421875 105.730469 C 217.894531 110.523438 219.117188 115.378906 220.085938 120.296875 C 220.734375 123.609375 221.105469 126.957031 221.203125 130.332031 C 221.296875 133.109375 220.882812 135.910156 220.6875 138.691406 Z M 318.363281 330.066406 C 315.539062 331.25 313.003906 330.761719 311.125 329.132812 C 307.433594 325.921875 303.65625 322.8125 299.921875 319.660156 C 299.371094 319.222656 298.84375 318.757812 298.34375 318.269531 C 294.355469 314.1875 290.378906 310.09375 286.414062 305.988281 C 276.289062 295.515625 266.203125 284.996094 256.023438 274.546875 C 250.1875 268.558594 244.21875 262.695312 238.28125 256.804688 C 234.15625 252.703125 229.941406 248.699219 225.839844 244.566406 C 221.09375 239.765625 216.382812 234.941406 211.777344 229.996094 C 210.171875 228.28125 208.515625 226.441406 208.261719 222.9375 C 214.195312 228.628906 219.617188 233.679688 224.113281 239.621094 C 226.265625 242.449219 228.460938 245.171875 232.050781 246.890625 C 231.9375 246.246094 231.988281 245.84375 231.808594 245.644531 C 226.824219 239.945312 221.804688 234.273438 216.820312 228.570312 C 215.050781 226.710938 213.421875 224.738281 211.9375 222.648438 C 211.070312 221.320312 209.230469 219.382812 210.921875 218.035156 C 212.207031 216.996094 214.585938 217.105469 216.484375 217.019531 C 217.460938 216.980469 218.511719 217.558594 219.457031 218.015625 C 224.199219 220.339844 228.433594 223.371094 232.15625 227.121094 C 239.085938 234 245.925781 240.972656 252.816406 247.890625 C 260.960938 256.058594 269.089844 264.246094 277.277344 272.371094 C 285.796875 280.828125 294.351562 289.246094 302.941406 297.632812 C 310.050781 304.542969 317.226562 311.382812 323.835938 318.808594 C 324.242188 319.230469 324.582031 319.699219 324.855469 320.222656 C 325.125 320.742188 325.316406 321.289062 325.429688 321.863281 C 325.546875 322.441406 325.574219 323.019531 325.523438 323.605469 C 325.46875 324.191406 325.335938 324.753906 325.117188 325.300781 C 324.722656 326.460938 323.835938 327.449219 323.007812 328.765625 C 321.25 327.367188 319.574219 326.289062 318.203125 324.914062 C 312.144531 318.769531 306.203125 312.511719 300.140625 306.371094 C 299.0625 305.28125 297.636719 304.523438 296.371094 303.613281 L 295.542969 304.460938 C 298.972656 308.917969 303.058594 312.789062 306.703125 316.984375 C 310.496094 321.394531 314.421875 325.667969 318.363281 330.066406 Z M 318.363281 330.066406 " fill-opacity="1" fill-rule="nonzero"/></g><path fill="#ffffff" d="M 220.6875 138.691406 C 220.882812 135.910156 221.296875 133.109375 221.203125 130.351562 C 221.105469 126.976562 220.734375 123.628906 220.085938 120.316406 C 219.117188 115.398438 217.894531 110.542969 216.421875 105.75 C 214.496094 99.589844 211.378906 93.949219 207.753906 88.617188 C 206.1875 86.316406 204.398438 84.164062 202.804688 81.867188 C 198.957031 76.3125 193.5 72.390625 188.222656 68.488281 C 182.941406 64.589844 176.953125 61.605469 170.792969 59.039062 C 160.757812 54.808594 150.261719 53.777344 139.640625 53.582031 C 134.230469 53.480469 128.734375 54.785156 123.367188 55.796875 C 112.234375 57.882812 102.796875 63.527344 94.007812 70.386719 C 87.847656 75.132812 82.585938 80.722656 78.222656 87.15625 C 75.515625 91.347656 73.117188 95.710938 71.023438 100.238281 C 69.472656 103.359375 68.191406 106.585938 67.171875 109.914062 C 64.726562 118.070312 64.09375 126.410156 64.148438 134.753906 C 64.089844 141.121094 65.078125 147.324219 67.113281 153.363281 C 68.351562 156.871094 69.207031 160.527344 70.644531 163.941406 C 73.785156 171.417969 78.082031 178.160156 83.535156 184.160156 C 86.742188 187.695312 90.058594 191.128906 93.511719 194.425781 C 95.007812 195.851562 97.027344 196.710938 98.710938 197.964844 C 105.914062 203.339844 114.148438 206.414062 122.609375 209.171875 C 127.472656 210.675781 132.449219 211.40625 137.535156 211.367188 C 146.089844 211.425781 154.808594 211.414062 163.101562 208.351562 C 167.449219 206.742188 171.953125 205.527344 176.261719 203.808594 C 178.707031 202.707031 181.019531 201.371094 183.195312 199.804688 C 185.707031 198.136719 188.066406 196.242188 190.519531 194.484375 C 196.371094 190.28125 201.085938 185.007812 205.4375 179.308594 C 212.71875 169.761719 217.230469 159.019531 219.589844 147.324219 C 220.167969 144.488281 220.558594 141.613281 221.035156 138.757812 Z M 182.207031 73.796875 C 184.59375 73.226562 186.148438 74.546875 187.664062 75.613281 C 192.820312 79.25 196.671875 84.191406 200.375 89.277344 C 206.46875 97.660156 209.453125 107.246094 211.601562 117.179688 C 211.84375 118.554688 211.96875 119.941406 211.980469 121.335938 C 212.039062 122.691406 211.980469 124.058594 211.980469 125.417969 C 210.195312 115.363281 206.902344 105.832031 202.105469 96.820312 C 197.261719 87.675781 190.253906 80.316406 182.207031 73.796875 Z M 69.351562 121.582031 C 70.539062 123.769531 70.636719 124.519531 70.476562 127.097656 C 70.378906 128.363281 70.386719 129.628906 70.507812 130.890625 C 70.847656 134.097656 71.253906 137.261719 71.695312 140.4375 C 72.960938 149.027344 75.527344 157.203125 79.394531 164.976562 C 80.292969 166.824219 81.261719 168.640625 82.449219 170.960938 C 72.894531 163.289062 65.535156 138.398438 69.351562 121.566406 Z M 91.347656 172.996094 C 88.5 170.644531 86.292969 167.796875 84.726562 164.449219 C 81.710938 157.707031 79.265625 150.6875 76.929688 143.667969 C 76.289062 141.742188 75.21875 139.320312 77.316406 136.480469 C 80.460938 149.632812 84.707031 161.703125 91.347656 172.996094 Z M 200.628906 113.617188 L 199.988281 113.757812 C 197.59375 104.003906 192.867188 95.433594 186.90625 87.410156 C 187.945312 87.601562 188.914062 87.972656 189.8125 88.527344 C 190.714844 89.082031 191.484375 89.777344 192.121094 90.621094 C 195.972656 95.433594 198.113281 101.078125 200.015625 106.789062 C 200.695312 108.914062 200.445312 111.339844 200.628906 113.617188 Z M 98.925781 188.574219 C 98.1875 188.441406 97.464844 188.238281 96.765625 187.964844 C 93.648438 186.3125 91.203125 183.851562 88.949219 181.195312 C 88.050781 180.128906 87.246094 178.992188 86.535156 177.789062 C 86.3125 177.410156 86.535156 176.761719 86.570312 176.242188 C 87.1875 176.246094 87.792969 176.335938 88.386719 176.507812 C 88.761719 176.660156 88.980469 177.199219 89.289062 177.546875 Z M 194.632812 112.9375 C 190.742188 108.375 189.820312 105.878906 191.203125 103.792969 C 192.238281 105.101562 193.046875 106.539062 193.628906 108.097656 C 194.214844 109.660156 194.546875 111.273438 194.632812 112.9375 Z M 211.257812 136.074219 L 210.410156 136.132812 C 210.039062 135.351562 209.785156 134.535156 209.652344 133.683594 C 209.652344 133.234375 210.382812 132.769531 210.789062 132.308594 C 211.238281 132.746094 212.070312 133.1875 212.070312 133.59375 C 212.03125 134.457031 211.550781 135.273438 211.257812 136.09375 Z M 211.257812 136.074219 " fill-opacity="1" fill-rule="nonzero"/><path fill="#ffffff" d="M 318.363281 330.066406 C 314.421875 325.667969 310.496094 321.394531 306.703125 317.003906 C 303.058594 312.789062 299.003906 308.917969 295.578125 304.496094 L 296.40625 303.652344 C 297.6875 304.5625 299.09375 305.320312 300.171875 306.410156 C 306.234375 312.550781 312.175781 318.808594 318.234375 324.953125 C 319.605469 326.339844 321.28125 327.417969 323.039062 328.804688 C 323.859375 327.488281 324.753906 326.5 325.152344 325.339844 C 325.367188 324.792969 325.5 324.226562 325.554688 323.644531 C 325.609375 323.058594 325.578125 322.480469 325.464844 321.902344 C 325.351562 321.328125 325.15625 320.78125 324.886719 320.257812 C 324.613281 319.738281 324.273438 319.269531 323.867188 318.84375 C 317.257812 311.441406 310.085938 304.601562 302.976562 297.671875 C 294.367188 289.304688 285.8125 280.882812 277.308594 272.410156 C 269.121094 264.285156 260.992188 256.097656 252.847656 247.929688 C 245.957031 241.011719 239.117188 234.039062 232.1875 227.160156 C 228.464844 223.410156 224.230469 220.375 219.488281 218.054688 C 218.546875 217.597656 217.492188 217.019531 216.519531 217.058594 C 214.59375 217.140625 212.265625 217.058594 210.953125 218.074219 C 209.261719 219.421875 211.101562 221.359375 211.96875 222.6875 C 213.457031 224.777344 215.082031 226.75 216.851562 228.609375 C 221.835938 234.3125 226.855469 239.984375 231.839844 245.683594 C 232.019531 245.882812 231.96875 246.28125 232.085938 246.929688 C 228.492188 245.207031 226.308594 242.488281 224.148438 239.660156 C 219.65625 233.722656 214.226562 228.671875 208.292969 222.976562 C 208.546875 226.453125 210.21875 228.292969 211.808594 230.035156 C 216.414062 234.96875 221.125 239.804688 225.875 244.605469 C 229.96875 248.738281 234.214844 252.742188 238.316406 256.84375 C 244.25 262.730469 250.21875 268.597656 256.058594 274.582031 C 266.234375 285.011719 276.320312 295.527344 286.445312 306.023438 C 290.390625 310.117188 294.355469 314.199219 298.34375 318.269531 C 298.84375 318.75 299.371094 319.207031 299.921875 319.632812 C 303.65625 322.785156 307.433594 325.898438 311.125 329.105469 C 313.003906 330.761719 315.539062 331.25 318.363281 330.066406 Z M 281.523438 282.976562 C 290.425781 288.570312 297.058594 296.578125 304.417969 303.796875 C 307.628906 306.976562 310.835938 310.214844 314.042969 313.421875 C 316.339844 315.703125 319.226562 317.484375 321.363281 320.945312 C 320.214844 320.566406 319.601562 320.527344 319.207031 320.210938 C 305.355469 309.105469 293.785156 295.667969 281.523438 282.976562 Z M 270.191406 271.136719 L 269.667969 271.636719 C 264.71875 266.742188 259.804688 261.816406 254.804688 256.964844 C 252.753906 254.96875 250.492188 253.179688 248.390625 251.222656 C 247.292969 250.195312 246.367188 248.988281 245.320312 247.902344 C 242.453125 244.925781 239.546875 241.972656 236.691406 238.984375 C 236.542969 238.832031 236.691406 238.382812 236.742188 238.035156 C 240.464844 239.34375 261.941406 260.628906 270.191406 271.113281 Z M 243.5625 253.75 C 244.234375 254.050781 244.863281 254.425781 245.449219 254.867188 C 249.789062 258.894531 254.042969 263.007812 258.410156 267 C 261.042969 269.398438 263.800781 271.664062 266.566406 273.917969 C 270.03125 276.71875 272.886719 280.042969 275.132812 283.886719 C 269.53125 279.125 264.046875 274.328125 258.625 269.5 C 253.203125 264.675781 247.785156 259.875 243.5625 253.722656 Z M 286.113281 299.828125 C 294.414062 304.914062 300.355469 312.019531 306.425781 318.960938 C 306.820312 319.402344 306.851562 320.160156 307.070312 320.769531 C 299.664062 316.617188 294.609375 310.09375 288.882812 304.3125 C 287.75 303.175781 286.242188 302.054688 286.113281 299.828125 Z M 218.367188 223.945312 C 225.335938 229 230.660156 235.660156 236.054688 242.257812 C 232.738281 240.519531 222.035156 229.609375 218.367188 223.945312 Z M 280.84375 295.5 L 280.125 296.453125 C 279.367188 296.078125 278.375 295.894531 277.886719 295.304688 C 274.554688 291.28125 270.371094 287.9375 268.144531 283.023438 C 273.140625 286.40625 277.375 290.566406 280.84375 295.5 Z M 293.511719 300.457031 C 290.210938 298.265625 288.753906 296.558594 288.082031 294.128906 C 290.648438 294.957031 291.863281 297.222656 293.734375 298.570312 C 293.933594 298.714844 293.632812 299.558594 293.511719 300.457031 Z M 235.589844 251.085938 L 233.503906 249.738281 C 235.425781 248.847656 235.425781 248.847656 235.589844 251.085938 Z M 235.589844 251.085938 " fill-opacity="1" fill-rule="nonzero"/><path fill="#000000" d="M 182.207031 73.796875 C 190.285156 80.328125 197.261719 87.6875 202.101562 96.832031 C 206.894531 105.84375 210.1875 115.378906 211.976562 125.429688 C 211.976562 124.070312 212.019531 122.703125 211.976562 121.347656 C 211.960938 119.953125 211.835938 118.566406 211.597656 117.191406 C 209.445312 107.25 206.464844 97.671875 200.367188 89.292969 C 196.671875 84.191406 192.820312 79.25 187.6875 75.597656 C 186.148438 74.535156 184.59375 73.210938 182.207031 73.796875 Z M 182.207031 73.796875 " fill-opacity="1" fill-rule="nonzero"/><path fill="#000000" d="M 69.351562 121.566406 C 65.535156 138.398438 72.894531 163.273438 82.441406 170.976562 C 81.257812 168.652344 80.289062 166.835938 79.390625 164.988281 C 75.523438 157.21875 72.953125 149.039062 71.6875 140.453125 C 71.246094 137.242188 70.84375 134.09375 70.503906 130.902344 C 70.382812 129.640625 70.371094 128.375 70.46875 127.109375 C 70.636719 124.488281 70.539062 123.753906 69.351562 121.566406 Z M 69.351562 121.566406 " fill-opacity="1" fill-rule="nonzero"/><path fill="#000000" d="M 91.347656 172.996094 C 84.707031 161.722656 80.441406 149.632812 77.316406 136.480469 C 75.21875 139.320312 76.289062 141.722656 76.929688 143.667969 C 79.265625 150.6875 81.710938 157.707031 84.726562 164.449219 C 86.292969 167.796875 88.5 170.644531 91.347656 172.996094 Z M 91.347656 172.996094 " fill-opacity="1" fill-rule="nonzero"/><path fill="#000000" d="M 200.628906 113.617188 C 200.445312 111.339844 200.695312 108.914062 199.988281 106.804688 C 198.0625 101.09375 195.925781 95.445312 192.097656 90.632812 C 191.457031 89.792969 190.6875 89.09375 189.789062 88.539062 C 188.886719 87.988281 187.917969 87.617188 186.878906 87.425781 C 192.839844 95.445312 197.570312 104.019531 199.964844 113.769531 Z M 200.628906 113.617188 " fill-opacity="1" fill-rule="nonzero"/><path fill="#000000" d="M 98.925781 188.574219 L 89.300781 177.546875 C 88.996094 177.199219 88.777344 176.660156 88.398438 176.507812 C 87.804688 176.335938 87.199219 176.246094 86.582031 176.242188 C 86.582031 176.761719 86.324219 177.410156 86.550781 177.789062 C 87.257812 178.992188 88.0625 180.128906 88.960938 181.195312 C 91.214844 183.851562 93.660156 186.328125 96.777344 187.964844 C 97.476562 188.238281 98.191406 188.441406 98.925781 188.574219 Z M 98.925781 188.574219 " fill-opacity="1" fill-rule="nonzero"/><path fill="#000000" d="M 194.632812 112.9375 C 194.546875 111.273438 194.214844 109.660156 193.628906 108.097656 C 193.046875 106.539062 192.238281 105.101562 191.203125 103.792969 C 189.820312 105.917969 190.742188 108.394531 194.632812 112.9375 Z M 194.632812 112.9375 " fill-opacity="1" fill-rule="nonzero"/><path fill="#000000" d="M 211.257812 136.09375 C 211.550781 135.273438 212.03125 134.457031 212.046875 133.636719 C 212.046875 133.207031 211.238281 132.765625 210.761719 132.355469 C 210.359375 132.816406 209.621094 133.277344 209.625 133.726562 C 209.761719 134.582031 210.011719 135.398438 210.382812 136.179688 Z M 211.257812 136.09375 " fill-opacity="1" fill-rule="nonzero"/><path fill="#000000" d="M 281.523438 282.976562 C 293.785156 295.667969 305.355469 309.105469 319.226562 320.191406 C 319.621094 320.507812 320.234375 320.546875 321.382812 320.925781 C 319.226562 317.484375 316.339844 315.703125 314.039062 313.386719 C 310.828125 310.175781 307.652344 306.96875 304.414062 303.761719 C 297.058594 296.554688 290.425781 288.546875 281.523438 282.976562 Z M 281.523438 282.976562 " fill-opacity="1" fill-rule="nonzero"/><path fill="#000000" d="M 270.191406 271.113281 C 261.941406 260.628906 240.464844 239.324219 236.75 238.007812 C 236.75 238.355469 236.550781 238.804688 236.699219 238.957031 C 239.554688 241.949219 242.472656 244.902344 245.328125 247.878906 C 246.375 248.960938 247.296875 250.167969 248.394531 251.195312 C 250.492188 253.121094 252.753906 254.941406 254.8125 256.9375 C 259.8125 261.789062 264.726562 266.71875 269.671875 271.613281 Z M 270.191406 271.113281 " fill-opacity="1" fill-rule="nonzero"/><path fill="#000000" d="M 243.5625 253.722656 C 247.785156 259.84375 253.1875 264.632812 258.625 269.476562 C 264.058594 274.320312 269.53125 279.152344 275.132812 283.863281 C 272.886719 280.015625 270.03125 276.691406 266.566406 273.890625 C 263.800781 271.636719 261.042969 269.398438 258.410156 266.972656 C 254.042969 262.984375 249.789062 258.871094 245.449219 254.839844 C 244.863281 254.398438 244.234375 254.027344 243.5625 253.722656 Z M 243.5625 253.722656 " fill-opacity="1" fill-rule="nonzero"/><path fill="#000000" d="M 286.113281 299.828125 C 286.242188 302.054688 287.75 303.175781 288.871094 304.316406 C 294.59375 310.09375 299.652344 316.625 307.054688 320.777344 C 306.851562 320.167969 306.820312 319.410156 306.414062 318.96875 C 300.355469 312.011719 294.414062 304.914062 286.113281 299.828125 Z M 286.113281 299.828125 " fill-opacity="1" fill-rule="nonzero"/><path fill="#000000" d="M 218.367188 223.945312 C 222.035156 229.636719 232.738281 240.542969 236.054688 242.257812 C 230.679688 235.636719 225.335938 228.972656 218.367188 223.945312 Z M 218.367188 223.945312 " fill-opacity="1" fill-rule="nonzero"/><path fill="#000000" d="M 280.84375 295.5 C 277.375 290.566406 273.140625 286.40625 268.144531 283.023438 C 270.371094 287.9375 274.5625 291.28125 277.886719 295.304688 C 278.375 295.894531 279.367188 296.078125 280.125 296.453125 Z M 280.84375 295.5 " fill-opacity="1" fill-rule="nonzero"/><path fill="#000000" d="M 293.511719 300.457031 C 293.632812 299.558594 293.933594 298.714844 293.734375 298.570312 C 291.863281 297.222656 290.65625 294.957031 288.082031 294.128906 C 288.753906 296.558594 290.210938 298.265625 293.511719 300.457031 Z M 293.511719 300.457031 " fill-opacity="1" fill-rule="nonzero"/><path fill="#000000" d="M 235.589844 251.085938 C 235.425781 248.847656 235.425781 248.847656 233.503906 249.738281 Z M 235.589844 251.085938 " fill-opacity="1" fill-rule="nonzero"/></svg>