<svg xmlns="http://www.w3.org/2000/svg" xmlns:xlink="http://www.w3.org/1999/xlink" width="500" zoomAndPan="magnify" viewBox="0 0 375 374.999991" height="500" preserveAspectRatio="xMidYMid meet" version="1.0"><defs><clipPath id="36943b842c"><path d="M 26.667969 52.351562 L 348.417969 52.351562 L 348.417969 322.351562 L 26.667969 322.351562 Z M 26.667969 52.351562 " clip-rule="nonzero"/></clipPath></defs><g clip-path="url(#36943b842c)"><path fill="#000000" d="M 339.085938 100.433594 C 344.222656 100.433594 348.386719 96.273438 348.386719 91.144531 C 348.386719 86.015625 344.222656 81.859375 339.085938 81.859375 C 335.585938 81.859375 332.542969 83.792969 330.953125 86.644531 L 196.414062 86.644531 C 196.300781 86.523438 196.214844 86.375 196.171875 86.199219 L 192.082031 68.699219 C 191.003906 64.066406 188.351562 59.890625 184.621094 56.933594 C 180.890625 53.976562 176.214844 52.347656 171.453125 52.347656 L 150.960938 52.347656 C 146.199219 52.347656 141.523438 53.976562 137.792969 56.933594 C 134.0625 59.890625 131.410156 64.066406 130.328125 68.699219 L 126.238281 86.203125 C 126.160156 86.53125 125.925781 86.789062 125.59375 86.910156 C 122.257812 88.097656 118.953125 89.464844 115.761719 90.980469 C 115.4375 91.132812 115.082031 91.117188 114.796875 90.941406 L 99.507812 81.449219 C 95.460938 78.9375 90.628906 77.851562 85.898438 78.394531 C 81.167969 78.941406 76.707031 81.09375 73.339844 84.457031 L 58.851562 98.925781 C 55.484375 102.285156 53.328125 106.742188 52.785156 111.46875 C 52.242188 116.191406 53.324219 121.015625 55.839844 125.054688 L 65.34375 140.324219 C 65.523438 140.613281 65.539062 140.964844 65.382812 141.289062 C 63.867188 144.472656 62.496094 147.777344 61.304688 151.109375 C 61.1875 151.4375 60.929688 151.671875 60.597656 151.75 L 43.070312 155.835938 C 38.433594 156.914062 34.25 159.5625 31.289062 163.289062 C 28.332031 167.015625 26.699219 171.683594 26.699219 176.4375 L 26.699219 198.722656 C 26.699219 202.335938 27.9375 205.882812 30.1875 208.714844 C 32.433594 211.542969 35.613281 213.550781 39.132812 214.371094 L 57.449219 218.640625 C 59.804688 219.1875 61.695312 220.878906 62.511719 223.167969 C 63.6875 226.457031 65.042969 229.714844 66.539062 232.863281 C 67.585938 235.0625 67.445312 237.597656 66.167969 239.652344 L 56.238281 255.609375 C 54.328125 258.675781 53.503906 262.339844 53.917969 265.929688 C 54.332031 269.515625 55.96875 272.898438 58.523438 275.453125 L 73.664062 290.574219 C 76.222656 293.128906 79.609375 294.761719 83.203125 295.171875 C 86.796875 295.585938 90.464844 294.761719 93.539062 292.855469 L 109.511719 282.941406 C 111.570312 281.664062 114.113281 281.527344 116.316406 282.570312 C 119.464844 284.0625 122.730469 285.417969 126.023438 286.589844 C 128.3125 287.40625 130.007812 289.296875 130.558594 291.648438 L 134.832031 309.9375 C 135.652344 313.453125 137.664062 316.628906 140.5 318.871094 C 143.332031 321.117188 146.882812 322.355469 150.5 322.355469 L 171.914062 322.355469 C 175.527344 322.355469 179.082031 321.117188 181.914062 318.871094 C 184.746094 316.628906 186.761719 313.453125 187.582031 309.9375 L 191.855469 291.648438 C 192.40625 289.296875 194.101562 287.40625 196.390625 286.589844 C 199.683594 285.417969 202.949219 284.0625 206.097656 282.570312 C 208.300781 281.527344 210.84375 281.664062 212.902344 282.941406 L 228.875 292.855469 C 231.945312 294.761719 235.617188 295.585938 239.210938 295.171875 C 242.800781 294.761719 246.1875 293.128906 248.746094 290.574219 L 263.886719 275.453125 C 266.445312 272.898438 268.082031 269.515625 268.496094 265.929688 C 268.910156 262.339844 268.085938 258.675781 266.175781 255.605469 L 260.5625 246.589844 L 325.492188 246.589844 C 327.078125 249.445312 330.128906 251.378906 333.628906 251.378906 C 338.765625 251.378906 342.929688 247.222656 342.929688 242.09375 C 342.929688 236.964844 338.765625 232.804688 333.628906 232.804688 C 330.128906 232.804688 327.078125 234.738281 325.492188 237.59375 L 252.277344 237.59375 C 249.785156 237.59375 247.769531 239.609375 247.769531 242.09375 C 247.769531 243.390625 248.320312 244.554688 249.199219 245.378906 L 258.523438 260.355469 C 260.269531 263.164062 259.855469 266.753906 257.519531 269.089844 L 242.375 284.210938 C 240.039062 286.546875 236.441406 286.957031 233.632812 285.214844 L 217.660156 275.296875 C 212.984375 272.398438 207.21875 272.078125 202.234375 274.445312 C 199.355469 275.808594 196.371094 277.046875 193.367188 278.113281 C 188.175781 279.960938 184.328125 284.257812 183.082031 289.601562 L 178.808594 307.894531 C 178.058594 311.109375 175.222656 313.359375 171.914062 313.359375 L 150.5 313.359375 C 147.191406 313.359375 144.359375 311.109375 143.605469 307.894531 L 139.332031 289.605469 C 138.085938 284.257812 134.238281 279.960938 129.050781 278.113281 C 126.042969 277.046875 123.058594 275.808594 120.179688 274.445312 C 115.195312 272.078125 109.429688 272.398438 104.757812 275.296875 L 88.78125 285.214844 C 85.972656 286.957031 82.375 286.546875 80.039062 284.210938 L 64.898438 269.089844 C 62.558594 266.753906 62.144531 263.164062 63.890625 260.359375 L 73.820312 244.402344 C 76.726562 239.734375 77.046875 233.980469 74.675781 229.003906 C 73.308594 226.128906 72.074219 223.148438 71 220.144531 C 69.148438 214.960938 64.847656 211.121094 59.496094 209.875 L 41.179688 205.609375 C 37.960938 204.859375 35.710938 202.027344 35.710938 198.722656 L 35.710938 192.53125 L 37.144531 192.53125 L 35.742188 186.9375 C 35.71875 186.851562 35.710938 186.761719 35.710938 186.671875 L 35.710938 176.4375 C 35.710938 173.707031 36.648438 171.023438 38.347656 168.882812 C 40.046875 166.742188 42.453125 165.21875 45.117188 164.597656 L 62.644531 160.515625 C 65.972656 159.742188 68.644531 157.355469 69.792969 154.128906 C 70.882812 151.085938 72.136719 148.0625 73.519531 145.152344 C 74.996094 142.050781 74.800781 138.472656 72.996094 135.574219 L 63.492188 120.304688 C 62.046875 117.984375 61.421875 115.210938 61.734375 112.492188 C 62.050781 109.78125 63.285156 107.222656 65.222656 105.289062 L 79.710938 90.816406 C 81.648438 88.886719 84.210938 87.648438 86.929688 87.335938 C 89.648438 87.023438 92.425781 87.648438 94.75 89.089844 L 110.039062 98.582031 C 112.941406 100.382812 116.527344 100.578125 119.628906 99.109375 C 122.546875 97.722656 125.570312 96.472656 128.617188 95.386719 C 131.847656 94.234375 134.238281 91.566406 135.011719 88.246094 L 139.101562 70.742188 C 139.726562 68.082031 141.25 65.679688 143.390625 63.980469 C 145.535156 62.28125 148.226562 61.34375 150.960938 61.34375 L 171.453125 61.34375 C 174.191406 61.34375 176.875 62.28125 179.023438 63.980469 C 181.164062 65.679688 182.6875 68.082031 183.3125 70.742188 L 187.398438 88.246094 C 188.164062 91.523438 190.503906 94.164062 193.667969 95.335938 C 194.179688 95.535156 194.730469 95.644531 195.304688 95.644531 L 330.953125 95.644531 C 332.542969 98.5 335.585938 100.433594 339.085938 100.433594 Z M 96.460938 190.050781 C 96.460938 225.703125 125.503906 254.710938 161.207031 254.710938 C 196.90625 254.710938 225.953125 225.703125 225.953125 190.050781 C 225.953125 187.566406 227.96875 185.554688 230.457031 185.554688 L 311.265625 185.554688 C 312.851562 182.703125 315.902344 180.769531 319.402344 180.769531 C 324.539062 180.769531 328.699219 184.921875 328.699219 190.050781 C 328.699219 195.179688 324.539062 199.339844 319.402344 199.339844 C 315.902344 199.339844 312.851562 197.40625 311.265625 194.550781 L 234.828125 194.550781 C 234.324219 202.902344 232.425781 211.019531 229.164062 218.722656 C 225.449219 227.496094 220.128906 235.371094 213.359375 242.132812 C 206.585938 248.898438 198.699219 254.207031 189.914062 257.917969 C 180.820312 261.757812 171.160156 263.707031 161.207031 263.707031 C 151.25 263.707031 141.59375 261.757812 132.496094 257.917969 C 123.714844 254.207031 115.828125 248.898438 109.054688 242.132812 C 102.28125 235.371094 96.964844 227.496094 93.25 218.722656 C 89.402344 209.640625 87.453125 199.992188 87.453125 190.050781 C 87.453125 180.113281 89.402344 170.464844 93.25 161.382812 C 96.964844 152.613281 102.28125 144.734375 109.054688 137.972656 C 115.828125 131.210938 123.714844 125.898438 132.496094 122.1875 C 141.59375 118.347656 151.25 116.398438 161.207031 116.398438 C 171.316406 116.398438 181.113281 118.40625 190.324219 122.363281 C 198.5 125.875 205.886719 130.773438 212.300781 136.933594 L 283.59375 136.933594 C 285.179688 134.082031 288.226562 132.148438 291.726562 132.148438 C 296.863281 132.148438 301.027344 136.304688 301.027344 141.433594 C 301.027344 146.5625 296.863281 150.722656 291.726562 150.722656 C 288.226562 150.722656 285.179688 148.789062 283.59375 145.933594 L 210.375 145.933594 C 208.875 145.933594 207.550781 145.207031 206.734375 144.082031 C 194.535156 132.023438 178.414062 125.398438 161.207031 125.398438 C 125.503906 125.398438 96.460938 154.402344 96.460938 190.050781 " fill-opacity="1" fill-rule="nonzero"/></g></svg>