<svg xmlns="http://www.w3.org/2000/svg" xmlns:xlink="http://www.w3.org/1999/xlink" width="500" zoomAndPan="magnify" viewBox="0 0 375 374.999991" height="500" preserveAspectRatio="xMidYMid meet" version="1.0"><defs><clipPath id="4a2c842aee"><path d="M 42 41 L 332.855469 41 L 332.855469 334.039062 L 42 334.039062 Z M 42 41 " clip-rule="nonzero"/></clipPath></defs><g clip-path="url(#4a2c842aee)"><path fill="#000000" d="M 100.140625 222.886719 C 100.03125 220.710938 100.179688 218.503906 100.335938 216.164062 C 100.445312 214.550781 100.5625 212.890625 100.585938 211.199219 L 100.585938 211.132812 C 100.585938 211.132812 100.585938 211.066406 100.585938 211.066406 C 100.503906 208.214844 100.484375 205.289062 100.46875 202.464844 C 100.433594 197.265625 100.394531 191.886719 100.003906 186.554688 L 100.003906 186.453125 C 99.828125 184.894531 99.605469 183.347656 99.378906 181.859375 C 99.089844 179.914062 98.8125 178.070312 98.691406 176.269531 C 98.601562 174.691406 98.542969 173.125 98.480469 171.550781 C 98.347656 168.273438 98.21875 164.898438 97.871094 161.523438 C 97.804688 160.257812 97.753906 158.960938 97.703125 157.636719 C 97.550781 153.609375 97.390625 149.441406 96.738281 145.460938 L 96.707031 145.308594 C 96.628906 144.917969 96.570312 144.359375 96.511719 143.769531 C 96.273438 141.375 95.917969 137.75 92.550781 136.046875 L 92.261719 135.914062 C 90.792969 135.339844 89.609375 135.398438 88.710938 135.675781 C 87.863281 135.582031 87.050781 135.585938 86.308594 135.585938 C 86.089844 135.585938 85.878906 135.585938 85.671875 135.585938 L 85.582031 135.585938 C 83.820312 135.625 82.046875 135.675781 80.285156 135.726562 L 79.710938 135.742188 C 75.859375 135.726562 72.171875 136.3125 68.59375 136.910156 C 65.597656 137.402344 62.757812 137.875 59.914062 137.96875 C 58.757812 138.003906 57.605469 138.011719 56.453125 138.019531 C 55.328125 138.027344 54.179688 138.042969 53.019531 138.070312 C 51.691406 136.582031 49.433594 135.914062 47.496094 136.445312 C 45.730469 136.929688 44.492188 138.289062 44.179688 140.082031 L 44.105469 140.511719 L 44.144531 140.945312 C 44.28125 142.425781 44.300781 144.082031 44.214844 145.78125 C 44.070312 149.832031 44.070312 153.929688 44.0625 157.882812 C 44.0625 163.925781 44.046875 170.167969 43.539062 176.238281 L 43.417969 178.453125 C 42.699219 191.71875 41.949219 205.441406 43.765625 218.921875 L 43.816406 219.207031 C 44.089844 220.417969 43.816406 222.648438 43.554688 224.804688 C 42.96875 229.589844 42.175781 236.09375 47.039062 239.222656 C 47.835938 239.914062 48.75 240.378906 49.695312 240.574219 C 53.394531 241.359375 57.074219 241.300781 60.632812 241.242188 C 62.292969 241.214844 63.867188 241.183594 65.429688 241.242188 L 65.515625 241.242188 C 65.515625 241.242188 65.601562 241.242188 65.601562 241.242188 C 70.457031 241.148438 75.242188 241.976562 80.308594 242.847656 C 82.824219 243.273438 85.421875 243.726562 88 244.042969 C 88.777344 244.144531 89.734375 244.234375 90.785156 244.234375 C 93.4375 244.234375 96.628906 243.675781 98.753906 241.429688 C 99.894531 240.226562 101.105469 238.097656 100.570312 234.742188 C 100.597656 230.125 100.46875 226.34375 100.148438 222.859375 Z M 87.714844 231.898438 C 86.273438 232.066406 84.710938 232.019531 83.09375 231.976562 C 82.347656 231.957031 81.578125 231.933594 80.828125 231.933594 C 80.65625 231.933594 80.488281 231.933594 80.320312 231.933594 C 72.867188 231.933594 66.792969 231.664062 61.25 231.113281 C 59.585938 230.925781 57.933594 230.714844 56.304688 230.496094 C 56.488281 226.199219 56.609375 221.617188 56.378906 217.019531 L 56.378906 216.933594 C 56.109375 213.601562 56.34375 210.246094 56.589844 206.703125 C 56.886719 202.375 57.199219 197.910156 56.574219 193.394531 C 56.371094 191.726562 56.148438 190.054688 55.914062 188.386719 C 54.964844 181.351562 54.0625 174.699219 54.6875 168 C 55.535156 161.355469 55.328125 154.726562 55.101562 148.308594 C 55.890625 148.257812 56.699219 148.214844 57.503906 148.199219 C 63.214844 148.273438 69.152344 147.910156 75.675781 147.101562 C 78.957031 146.695312 82.179688 146.449219 85.828125 146.21875 C 85.875 146.703125 85.917969 147.199219 85.953125 147.660156 C 86.078125 149.289062 86.0625 150.9375 86.039062 152.679688 C 86.027344 154.210938 86.011719 155.800781 86.097656 157.414062 C 86.207031 159.425781 86.496094 161.363281 86.78125 163.242188 C 87.003906 164.738281 87.222656 166.15625 87.339844 167.570312 C 87.441406 172.574219 87.519531 177.886719 87.273438 183.128906 L 87.230469 183.515625 C 86.757812 187.957031 86.273438 192.546875 86.242188 197.148438 C 86.214844 200.378906 86.691406 203.472656 87.15625 206.472656 C 87.433594 208.273438 87.703125 209.972656 87.855469 211.683594 C 88.101562 217.347656 88.289062 224.601562 87.703125 231.90625 Z M 213.242188 48.765625 C 212.320312 44.765625 209.300781 40.800781 204.832031 41.527344 L 204.460938 41.585938 L 204.113281 41.722656 C 203.453125 41.992188 202.855469 42.386719 202.363281 42.878906 C 201.726562 43.066406 201.070312 43.34375 200.398438 43.722656 C 195.898438 46.355469 192.210938 49.058594 189.132812 51.976562 L 189.058594 52.050781 C 186.867188 54.269531 184.777344 56.601562 182.761719 58.867188 C 180.699219 61.175781 178.566406 63.558594 176.375 65.75 L 176.164062 65.980469 C 173.296875 69.46875 169.371094 72.183594 165.929688 74.554688 C 162.496094 76.863281 159.734375 79.777344 157.070312 82.578125 C 153.449219 86.246094 149.914062 90.261719 146.566406 94.523438 C 144.492188 96.824219 142.082031 98.820312 139.527344 100.925781 C 138.5625 101.726562 137.605469 102.515625 136.660156 103.328125 L 135.320312 104.636719 C 130.738281 109.136719 126.007812 113.792969 121.964844 119.003906 L 121.203125 120.136719 C 120.824219 120.710938 120.441406 121.292969 120.0625 121.859375 C 118.257812 123.601562 116.109375 125.226562 113.152344 127.109375 L 113 127.210938 C 112.804688 127.347656 112.144531 127.660156 111.660156 127.882812 C 111.476562 127.972656 111.289062 128.058594 111.101562 128.144531 C 108.996094 128.246094 106.652344 129.691406 105.234375 133.578125 L 105.191406 133.707031 C 104.480469 135.957031 104.605469 138.152344 104.714844 140.089844 C 104.734375 140.46875 104.757812 140.84375 104.773438 141.214844 L 104.808594 141.585938 C 105.628906 146.9375 105.648438 152.257812 105.671875 157.898438 C 105.679688 159.859375 105.6875 161.886719 105.738281 163.941406 C 105.847656 167.089844 105.554688 170.378906 105.25 173.859375 C 104.929688 177.429688 104.605469 181.117188 104.734375 184.761719 C 104.707031 190.25 105.78125 195.542969 106.824219 200.664062 L 107.015625 201.585938 L 107.058594 201.765625 C 108.269531 206.355469 108.152344 211.148438 108.039062 216.222656 C 108 217.683594 107.972656 219.191406 107.964844 220.695312 C 107.835938 223.484375 107.980469 226.226562 108.109375 228.882812 C 108.226562 231.105469 108.335938 233.210938 108.292969 235.308594 C 108.125 235.890625 108.097656 236.507812 108.203125 237.117188 C 108.203125 237.726562 108.269531 238.5625 108.660156 239.40625 C 108.863281 243.324219 109.554688 247.695312 112.390625 251.429688 C 114.171875 253.925781 116.347656 255.886719 118.453125 257.78125 C 119.460938 258.6875 120.410156 259.546875 121.304688 260.445312 L 121.371094 260.511719 C 122.726562 261.804688 123.953125 263.269531 125.253906 264.824219 C 127.210938 267.167969 129.238281 269.59375 131.90625 271.597656 C 137.335938 275.621094 141.972656 279.273438 146.554688 283.140625 C 147.125 283.613281 147.714844 284.070312 148.296875 284.535156 C 150.125 285.980469 151.851562 287.347656 153.308594 288.90625 C 153.925781 289.707031 154.542969 290.503906 155.152344 291.304688 C 158.535156 295.722656 162.035156 300.296875 166.621094 304.007812 C 168.550781 305.738281 170.472656 307.550781 172.332031 309.300781 C 176.039062 312.800781 179.871094 316.410156 184.097656 319.675781 L 184.191406 319.75 C 187.128906 321.847656 189.734375 324.425781 191.898438 326.667969 C 194.5625 329.433594 198.582031 333.609375 204.230469 334.015625 C 204.382812 334.023438 204.535156 334.03125 204.6875 334.03125 C 208.046875 334.03125 211.160156 332.042969 212.539062 328.976562 C 213.0625 327.867188 213.15625 326.667969 212.84375 325.527344 L 212.84375 325.507812 C 213.34375 322.820312 213.429688 320.164062 213.511719 317.59375 C 213.539062 316.75 213.5625 315.910156 213.605469 315.023438 C 213.683594 312.75 213.78125 310.46875 213.882812 308.199219 C 214.164062 301.632812 214.453125 294.847656 214.230469 288.070312 C 214.121094 285.472656 213.9375 282.859375 213.765625 280.324219 C 213.503906 276.5625 213.242188 272.671875 213.207031 268.949219 C 213.273438 263.066406 212.910156 257.15625 212.558594 251.449219 C 212.304688 247.339844 212.050781 243.09375 211.957031 238.941406 L 211.957031 238.859375 C 211.804688 235.628906 212.140625 232.050781 212.457031 228.59375 C 212.667969 226.34375 212.886719 224.011719 212.972656 221.71875 C 213.242188 214.246094 213.285156 208.171875 213.125 202.59375 C 213.054688 200.378906 213.164062 198.171875 213.273438 195.835938 C 213.378906 193.589844 213.488281 191.277344 213.429688 188.894531 C 213.242188 183.746094 213.082031 177.785156 213.582031 172.035156 C 214.097656 168.828125 214.332031 165.617188 214.550781 162.503906 C 214.679688 160.714844 214.808594 158.871094 214.992188 157.113281 C 215.5 152.578125 215.515625 148.039062 215.527344 143.648438 C 215.527344 142.035156 215.535156 140.421875 215.570312 138.820312 L 215.570312 138.773438 C 215.570312 138.773438 215.570312 138.730469 215.570312 138.730469 C 215.550781 136.007812 215.628906 133.214844 215.703125 130.511719 C 215.863281 124.734375 216.023438 118.765625 215.304688 112.796875 C 215.058594 110.261719 214.671875 107.742188 214.292969 105.296875 C 213.546875 100.410156 212.835938 95.792969 213.191406 91.191406 C 213.476562 89.246094 213.953125 87.320312 214.453125 85.28125 C 215.0625 82.8125 215.695312 80.261719 215.984375 77.605469 C 216.667969 71.753906 216.277344 66.714844 215.738281 62.074219 C 215.230469 58.367188 214.484375 53.5 213.207031 48.722656 Z M 205.078125 81.714844 C 204.070312 87.378906 203.03125 93.238281 203.167969 99.378906 C 203.117188 105.160156 203.53125 110.960938 203.925781 116.574219 C 204.425781 123.730469 204.945312 131.136719 204.488281 138.253906 C 204.382812 139.617188 204.257812 140.980469 204.132812 142.355469 C 203.65625 147.699219 203.160156 153.230469 203.257812 158.769531 L 203.257812 158.886719 C 203.378906 161.210938 203.566406 163.546875 203.742188 165.804688 C 204.242188 172.085938 204.707031 178.019531 203.9375 183.984375 C 203.707031 185.886719 203.394531 187.753906 203.058594 189.734375 C 202.5 193.082031 201.921875 196.539062 201.78125 200.148438 C 201.652344 205.824219 202.066406 211.511719 202.464844 217.007812 C 203.023438 224.71875 203.546875 232 202.742188 239.347656 C 202.609375 240.195312 202.480469 241.046875 202.347656 241.894531 C 201.507812 247.320312 200.636719 252.929688 200.816406 258.6875 C 200.832031 263.355469 201.441406 267.945312 202.035156 272.375 C 202.175781 273.414062 202.3125 274.453125 202.441406 275.445312 C 202.902344 279.503906 202.804688 283.570312 202.703125 287.875 C 202.632812 290.867188 202.558594 293.960938 202.691406 297.007812 C 202.777344 299.871094 203.089844 302.695312 203.394531 305.425781 C 203.902344 309.96875 204.382812 314.261719 203.84375 318.542969 C 203.683594 319.792969 203.523438 320.984375 203.183594 322.007812 C 202.957031 322.058594 202.734375 322.128906 202.507812 322.226562 C 202.390625 322.277344 202.285156 322.328125 202.183594 322.386719 C 201.3125 321.8125 200.441406 321.152344 199.539062 320.476562 C 198.617188 319.777344 197.675781 319.058594 196.660156 318.390625 C 194.984375 317.214844 192.804688 315.65625 190.746094 313.957031 C 189.386719 312.765625 188.183594 311.320312 186.914062 309.789062 C 186.296875 309.046875 185.6875 308.3125 185.023438 307.566406 C 183.988281 306.425781 183.03125 305.191406 182.019531 303.886719 C 180.410156 301.800781 178.742188 299.652344 176.613281 297.734375 C 175.539062 296.785156 174.4375 295.882812 173.371094 295.003906 C 171.375 293.363281 169.488281 291.820312 167.847656 290.054688 C 164.804688 286.46875 161.257812 283.542969 157.832031 280.71875 C 156.453125 279.585938 155.03125 278.410156 153.6875 277.226562 C 152.648438 276.128906 151.605469 274.972656 150.601562 273.855469 C 147.113281 269.984375 143.503906 265.976562 138.757812 263.023438 C 136.777344 261.714844 134.882812 260.402344 133.425781 258.785156 C 132.640625 257.867188 131.886719 256.917969 131.09375 255.914062 C 129.90625 254.40625 128.671875 252.84375 127.3125 251.40625 C 126.015625 249.984375 124.628906 248.699219 123.292969 247.449219 C 122.167969 246.398438 121.101562 245.410156 120.101562 244.363281 C 119.34375 243.484375 118.496094 242.375 118.378906 241.378906 C 118.402344 240 118.566406 238.585938 118.75 237.089844 C 118.894531 235.882812 119.039062 234.636719 119.121094 233.355469 C 119.359375 230.953125 119.230469 228.652344 119.097656 226.421875 C 119.003906 224.855469 118.925781 223.367188 118.96875 221.914062 C 119.121094 220.972656 119.375 219.183594 118.472656 217.582031 C 118.328125 209.203125 117.710938 200.917969 117.058594 193.191406 L 117.042969 193.070312 C 116.8125 191.210938 116.558594 189.359375 116.304688 187.5 C 115.882812 184.4375 115.449219 181.269531 115.148438 178.191406 C 114.554688 171.65625 114.519531 166.308594 115.042969 161.363281 C 116.3125 154.3125 116.578125 147.050781 115.839844 139.777344 C 115.933594 139.582031 116.167969 139.226562 116.332031 138.976562 L 116.425781 138.839844 C 116.667969 138.484375 116.863281 138.105469 117.03125 137.707031 C 117.691406 137.234375 118.371094 136.769531 119.089844 136.292969 C 119.917969 135.734375 120.773438 135.160156 121.644531 134.527344 L 121.726562 134.46875 C 122.546875 134.011719 123.277344 133.539062 123.960938 133.039062 C 125.78125 131.949219 127.726562 129.378906 128.824219 127.230469 C 129.433594 126.542969 130.042969 125.851562 130.652344 125.160156 C 132.03125 123.59375 133.335938 122.121094 134.679688 120.683594 C 136.34375 118.890625 137.945312 116.949219 139.492188 115.070312 C 142.066406 111.949219 144.722656 108.722656 147.664062 106.21875 L 147.773438 106.117188 C 152.824219 101.40625 158.617188 97.425781 164.246094 93.5625 C 166.480469 91.996094 168.320312 90.128906 170.097656 88.320312 C 170.699219 87.703125 171.308594 87.09375 171.875 86.535156 C 173.121094 85.375 174.363281 84.191406 175.597656 83.015625 C 177.203125 81.476562 178.871094 79.886719 180.539062 78.375 C 182.007812 77.03125 183.542969 75.785156 185.164062 74.460938 C 187.523438 72.539062 189.96875 70.546875 192.195312 68.253906 C 194.191406 66.191406 196 63.957031 197.742188 61.792969 C 199.328125 59.816406 200.875 57.90625 202.507812 56.171875 C 202.980469 58.765625 203.421875 61.34375 203.800781 63.949219 C 203.894531 64.644531 203.996094 65.34375 204.097656 66.039062 C 204.875 71.46875 205.609375 76.605469 205.078125 81.707031 Z M 269.007812 257.140625 C 264.394531 263.734375 260.082031 269.59375 254.3125 274.328125 L 254.253906 274.371094 C 253.601562 274.878906 252.96875 275.417969 252.332031 275.945312 C 251.300781 276.8125 250.226562 277.710938 249.074219 278.539062 L 248.671875 278.777344 C 248.609375 278.816406 248.542969 278.859375 248.476562 278.894531 C 248.050781 279.148438 247.394531 279.539062 246.511719 279.714844 L 246.199219 279.773438 L 245.878906 279.773438 C 244.839844 279.773438 243.875 279.34375 243.164062 278.554688 C 242.394531 277.710938 241.996094 276.550781 242.097656 275.4375 L 242.132812 275.054688 L 242.257812 274.691406 C 242.949219 272.636719 244.492188 271.519531 245.625 270.703125 C 246.023438 270.414062 246.480469 270.085938 246.648438 269.878906 L 246.824219 269.679688 C 248.136719 268.292969 249.167969 266.550781 250.257812 264.707031 C 250.996094 263.453125 251.765625 262.160156 252.664062 260.894531 C 253.929688 259.042969 255.320312 257.324219 256.671875 255.660156 C 258.441406 253.484375 260.113281 251.421875 261.433594 249.171875 C 262.59375 246.863281 263.339844 244.3125 264.125 241.625 C 264.910156 238.960938 265.714844 236.203125 266.976562 233.53125 C 267.90625 231.339844 268.964844 229.203125 269.988281 227.140625 C 271.855469 223.382812 273.617188 219.832031 274.605469 216.027344 C 276.542969 208.25 276.730469 199.863281 276.914062 191.761719 C 276.941406 190.578125 276.964844 189.402344 277 188.226562 C 277.066406 180.921875 276.890625 171.292969 274.925781 162.058594 C 274.4375 160.199219 273.988281 158.292969 273.546875 156.445312 C 271.621094 148.34375 269.800781 140.691406 264.960938 134.621094 C 262.425781 131.558594 259.597656 128.597656 256.867188 125.726562 C 255.640625 124.492188 254.4375 123.152344 253.269531 121.851562 C 251.351562 119.714844 249.539062 117.691406 247.484375 115.992188 C 247.085938 115.695312 246.679688 115.402344 246.277344 115.105469 C 243.578125 113.132812 240.785156 111.082031 238.410156 108.40625 C 237.941406 107.867188 237.511719 107.332031 237.105469 106.816406 C 236.632812 106.21875 236.199219 105.652344 235.742188 105.1875 C 234.195312 103.613281 233.628906 101.109375 234.332031 98.953125 C 234.878906 97.367188 235.9375 96.257812 237.324219 95.769531 C 239.8125 94.894531 242.183594 96.367188 242.96875 96.851562 C 243.898438 97.449219 244.878906 97.957031 245.914062 98.488281 C 246.582031 98.828125 247.25 99.175781 247.90625 99.539062 C 255.242188 103.546875 260.308594 110.242188 264.285156 116.261719 C 266.054688 118.859375 268.101562 121.453125 270.082031 123.949219 C 272.261719 126.707031 274.519531 129.554688 276.535156 132.582031 C 280.492188 138.738281 283.589844 145.511719 285.78125 152.757812 C 289.628906 163.824219 290.914062 174.835938 289.597656 185.503906 L 289.382812 187.578125 C 288.726562 193.832031 288.058594 200.292969 286.398438 206.609375 C 285.613281 210.023438 285.011719 213.574219 284.429688 217.015625 C 283.867188 220.375 283.277344 223.847656 282.515625 227.273438 C 281.753906 230.648438 280.585938 234.105469 278.710938 238.46875 C 275.941406 245.023438 273.109375 251.386719 269.015625 257.121094 Z M 332.417969 195.007812 L 332.402344 195.175781 C 331.679688 202.734375 330.734375 210.988281 329.515625 220.398438 C 328.507812 227.882812 326.757812 235.253906 325.066406 242.375 L 324.449219 244.996094 C 323.863281 247.371094 323.359375 249.816406 322.875 252.175781 C 321.800781 257.425781 320.691406 262.855469 318.535156 268.046875 C 316.921875 272.171875 314.59375 275.882812 312.34375 279.476562 C 310.171875 282.9375 308.121094 286.214844 306.703125 289.800781 L 306.667969 289.886719 C 304.332031 295.375 301.898438 299.535156 299.027344 302.992188 C 297.320312 305.03125 295.433594 306.8125 293.613281 308.539062 C 291.914062 310.144531 290.308594 311.660156 288.894531 313.324219 C 284.648438 318.449219 279.714844 322.855469 274.261719 326.386719 L 274.074219 326.523438 C 273.4375 327.011719 272.238281 327.910156 270.605469 327.925781 C 269.429688 327.925781 268.339844 327.460938 267.519531 326.617188 C 266.601562 325.675781 266.070312 324.28125 266.113281 322.90625 L 266.113281 322.726562 C 266.324219 320.335938 267.980469 318.980469 268.972656 318.167969 C 269.183594 318 269.394531 317.816406 269.511719 317.703125 L 269.605469 317.609375 C 271.078125 316.234375 272.628906 315.015625 274.132812 313.839844 C 276.410156 312.046875 278.566406 310.355469 280.230469 308.328125 C 284.722656 302.113281 289.140625 295.417969 293.722656 287.875 C 295.527344 284.667969 298.148438 280.042969 300.457031 276.136719 C 303.808594 270.320312 305.804688 263.917969 307.925781 257.140625 C 308.386719 255.667969 308.84375 254.1875 309.324219 252.722656 C 310.464844 249.082031 311.996094 245.589844 313.476562 242.214844 C 315.027344 238.671875 316.503906 235.324219 317.546875 231.8125 C 318.722656 227.359375 318.839844 222.714844 318.960938 217.796875 L 318.984375 217.007812 C 319.144531 213.289062 319.273438 209.464844 319.390625 205.25 L 319.390625 205.164062 C 319.617188 201.0625 320.007812 196.925781 320.378906 192.921875 C 321.191406 184.261719 322.03125 175.300781 321.167969 166.617188 C 320.4375 158.972656 318.410156 151.335938 316.453125 143.945312 C 316.117188 142.675781 315.777344 141.402344 315.449219 140.125 L 314.882812 138.15625 C 311.648438 126.933594 308.292969 115.332031 302.726562 105.09375 C 300.871094 102.058594 298.359375 99.039062 295.0625 95.867188 L 294.941406 95.734375 L 293.980469 94.703125 C 290.984375 91.480469 287.878906 88.140625 284.714844 85.019531 C 284.011719 84.300781 283.355469 83.617188 282.695312 82.925781 C 280.613281 80.75 278.640625 78.695312 276.449219 76.894531 C 273.507812 74.644531 269.945312 72.691406 266.5 70.796875 C 265.257812 70.113281 264.046875 69.445312 262.882812 68.785156 C 261.65625 68.117188 260.359375 67.476562 258.988281 66.800781 C 257.046875 65.84375 255.046875 64.855469 253.222656 63.773438 C 252.746094 63.507812 252.273438 63.238281 251.792969 62.960938 C 249.125 61.421875 248.347656 58.023438 249.117188 55.59375 C 249.59375 54.007812 250.800781 52.753906 252.359375 52.230469 C 253.828125 51.730469 255.378906 51.941406 256.65625 52.789062 C 257.5 53.269531 258.324219 53.769531 259.152344 54.269531 C 259.761719 54.632812 260.371094 55.003906 260.980469 55.359375 C 262.550781 56.253906 264.234375 57.007812 265.527344 57.558594 L 265.816406 57.699219 C 268.203125 59.003906 270.824219 59.941406 273.589844 60.929688 C 277.269531 62.242188 281.078125 63.601562 284.5625 65.960938 L 284.699219 66.054688 C 290.0625 70.105469 295.339844 74.992188 300.382812 80.589844 C 302.414062 82.941406 304.402344 85.242188 306.378906 87.558594 C 310.027344 91.894531 313.191406 97.152344 316.355469 104.105469 C 317.257812 106.03125 318.25 108.011719 319.214844 109.929688 C 321.75 114.96875 324.371094 120.175781 325.980469 125.875 C 329.09375 136.132812 329.601562 146.855469 330.09375 157.222656 L 330.210938 159.582031 C 330.464844 162.996094 330.8125 166.480469 331.148438 169.855469 C 331.96875 178.054688 332.816406 186.535156 332.441406 195.027344 Z M 249.691406 207.675781 C 246.925781 215.835938 243.542969 224.171875 235.339844 228.484375 C 234.890625 228.710938 234.472656 228.949219 234.027344 229.195312 C 232.15625 230.25 229.753906 231.59375 227.148438 231.59375 C 226.386719 231.59375 225.601562 231.476562 224.8125 231.199219 C 223.25 230.78125 221.980469 229.472656 221.523438 227.789062 C 220.421875 223.488281 224.5625 221.726562 225.921875 221.144531 C 226.234375 221.015625 226.699219 220.8125 226.84375 220.714844 L 227.039062 220.558594 L 227.21875 220.460938 C 231.089844 218.253906 234.355469 214.648438 237.230469 209.425781 L 237.28125 209.339844 C 245.769531 194.914062 243.339844 177.457031 239.804688 165.355469 C 238.8125 161.769531 235.988281 159.089844 232.988281 156.25 C 232.277344 155.574219 231.558594 154.902344 230.871094 154.210938 C 230.609375 153.949219 230.339844 153.695312 230.074219 153.441406 C 228.128906 151.605469 224.875 148.535156 226.378906 143.910156 L 226.457031 143.699219 C 227.625 140.808594 229.710938 140.089844 230.847656 139.914062 C 235.050781 139.277344 239 143.648438 242.6875 148.175781 C 242.917969 148.46875 243.121094 148.714844 243.28125 148.902344 L 243.367188 149.003906 C 254.050781 162.769531 257.832031 180.820312 253.238281 196.117188 C 252.121094 200.34375 250.765625 204.503906 249.695312 207.664062 Z M 249.691406 207.675781 " fill-opacity="1" fill-rule="nonzero"/></g></svg>