<svg xmlns="http://www.w3.org/2000/svg" xmlns:xlink="http://www.w3.org/1999/xlink" width="500" zoomAndPan="magnify" viewBox="0 0 375 374.999991" height="500" preserveAspectRatio="xMidYMid meet" version="1.0"><defs><clipPath id="7e56a075ef"><path d="M 37.5 37.5 L 337.5 37.5 L 337.5 337.5 L 37.5 337.5 Z M 37.5 37.5 " clip-rule="nonzero"/></clipPath><clipPath id="0482aaf4da"><path d="M 87 97.472656 L 266.992188 97.472656 L 266.992188 277.472656 L 87 277.472656 Z M 87 97.472656 " clip-rule="nonzero"/></clipPath></defs><g clip-path="url(#7e56a075ef)"><path fill="#231f20" d="M 187.5 37.5 C 104.636719 37.5 37.5 104.699219 37.5 187.5 C 37.5 270.300781 104.636719 337.5 187.5 337.5 C 270.363281 337.5 337.5 270.300781 337.5 187.5 C 337.5 104.699219 270.363281 37.5 187.5 37.5 Z M 187.5 328.003906 C 109.898438 328.003906 46.996094 265.101562 46.996094 187.5 C 46.996094 109.898438 109.898438 46.996094 187.5 46.996094 C 265.101562 46.996094 328.003906 109.898438 328.003906 187.5 C 328.003906 265.101562 265.101562 328.003906 187.5 328.003906 Z M 187.5 328.003906 " fill-opacity="1" fill-rule="nonzero"/></g><g clip-path="url(#0482aaf4da)"><path fill="#000000" d="M 266.980469 107.453125 C 266.992188 105.789062 266.570312 104.152344 265.753906 102.695312 C 264.496094 100.453125 262.441406 98.839844 259.972656 98.148438 C 257.507812 97.457031 254.917969 97.769531 252.679688 99.03125 L 92.316406 189.941406 C 89.980469 191.203125 88.257812 193.394531 87.585938 195.964844 C 86.242188 201.085938 89.3125 206.347656 94.425781 207.691406 L 142.695312 220.375 L 160.8125 271.277344 C 160.828125 271.320312 160.84375 271.363281 160.859375 271.40625 C 161.816406 273.792969 163.644531 275.664062 166.003906 276.671875 C 167.214844 277.1875 168.488281 277.445312 169.765625 277.445312 C 170.976562 277.445312 172.1875 277.210938 173.34375 276.746094 C 174.644531 276.222656 175.824219 275.421875 176.761719 274.421875 L 203.210938 248.785156 L 245.390625 272.296875 C 246.78125 273.15625 248.375 273.648438 250.011719 273.722656 C 252.582031 273.835938 255.035156 272.945312 256.925781 271.207031 C 258.816406 269.472656 259.921875 267.105469 260.035156 264.542969 L 266.984375 107.824219 C 266.988281 107.699219 266.988281 107.574219 266.980469 107.453125 Z M 149.472656 218.484375 L 226.734375 148.609375 L 179.078125 231.261719 C 178.953125 231.476562 178.851562 231.703125 178.777344 231.941406 L 167.15625 268.164062 Z M 175.160156 266.203125 L 184.152344 238.164062 L 196.808594 245.21875 Z M 259.957031 107.8125 L 253.019531 264.230469 C 252.988281 264.925781 252.691406 265.570312 252.179688 266.039062 C 251.671875 266.503906 251.011719 266.742188 250.324219 266.710938 C 249.871094 266.691406 249.445312 266.558594 249.0625 266.316406 C 249.007812 266.28125 248.949219 266.246094 248.886719 266.210938 L 186.9375 231.679688 L 196.332031 215.386719 L 222.636719 230.046875 C 223.175781 230.347656 223.765625 230.492188 224.34375 230.492188 C 225.574219 230.492188 226.769531 229.84375 227.410156 228.691406 C 228.355469 227 227.75 224.863281 226.054688 223.917969 L 199.839844 209.304688 L 207.726562 195.628906 L 239.332031 213.246094 C 239.871094 213.546875 240.460938 213.6875 241.039062 213.6875 C 242.269531 213.6875 243.464844 213.039062 244.105469 211.886719 C 245.050781 210.195312 244.445312 208.058594 242.75 207.113281 L 211.234375 189.546875 L 216.726562 180.019531 L 241.027344 193.566406 C 241.570312 193.867188 242.15625 194.011719 242.734375 194.011719 C 243.964844 194.011719 245.160156 193.363281 245.800781 192.210938 C 246.746094 190.519531 246.140625 188.382812 244.445312 187.4375 L 220.230469 173.941406 L 237.234375 144.453125 C 237.339844 144.269531 237.429688 144.078125 237.5 143.878906 C 238.316406 141.582031 237.464844 138.996094 235.425781 137.589844 C 233.582031 136.320312 230.503906 135.902344 227.410156 138.539062 C 227.382812 138.5625 227.355469 138.585938 227.332031 138.609375 L 195.769531 167.152344 L 176.210938 162.011719 C 174.335938 161.519531 172.414062 162.640625 171.921875 164.515625 C 171.429688 166.390625 172.550781 168.308594 174.425781 168.800781 L 189.550781 172.777344 L 181.945312 179.65625 L 158.652344 173.535156 C 156.777344 173.042969 154.855469 174.160156 154.363281 176.035156 C 153.871094 177.910156 154.992188 179.828125 156.867188 180.320312 L 175.730469 185.277344 L 164.804688 195.160156 L 136.878906 187.820312 C 135.003906 187.328125 133.085938 188.449219 132.589844 190.320312 C 132.097656 192.195312 133.21875 194.113281 135.09375 194.609375 L 158.585938 200.78125 L 144.4375 213.578125 L 96.210938 200.90625 C 94.835938 200.542969 94.011719 199.125 94.375 197.742188 C 94.5625 197.03125 95.015625 196.453125 95.660156 196.109375 C 95.6875 196.097656 95.714844 196.082031 95.742188 196.066406 L 256.136719 105.140625 C 256.730469 104.804688 257.421875 104.722656 258.078125 104.90625 C 258.742188 105.089844 259.289062 105.523438 259.628906 106.125 C 259.867188 106.550781 259.980469 107.027344 259.957031 107.507812 C 259.953125 107.613281 259.953125 107.714844 259.957031 107.8125 Z M 259.957031 107.8125 " fill-opacity="1" fill-rule="nonzero"/></g><path fill="#000000" d="M 238.144531 231.164062 L 238.140625 231.164062 C 236.203125 231.164062 234.632812 232.734375 234.632812 234.671875 C 234.632812 236.609375 236.207031 238.183594 238.144531 238.183594 C 240.082031 238.183594 241.65625 236.609375 241.65625 234.671875 C 241.65625 232.734375 240.082031 231.164062 238.144531 231.164062 Z M 238.144531 231.164062 " fill-opacity="1" fill-rule="nonzero"/></svg>